<svg width="25" height="25" viewBox="0 0 25 25" fill="none" xmlns="http://www.w3.org/2000/svg">
<path d="M24.2891 10.247C24.4348 11.086 24.5075 11.936 24.5063 12.7876C24.5063 16.5907 23.1469 19.8063 20.7812 21.9829H20.7844C18.7156 23.8938 15.8719 25.0001 12.5 25.0001C9.18479 25.0001 6.00537 23.6831 3.66117 21.3389C1.31696 18.9947 0 15.8153 0 12.5001C0 9.18489 1.31696 6.00546 3.66117 3.66126C6.00537 1.31705 9.18479 9.24009e-05 12.5 9.24009e-05C15.603 -0.0362488 18.5998 1.12952 20.8625 3.25322L17.2937 6.82197C16.0037 5.59224 14.282 4.91883 12.5 4.94697C9.23906 4.94697 6.46875 7.14697 5.48125 10.1095C4.95767 11.6618 4.95767 13.3431 5.48125 14.8954H5.48594C6.47813 17.8532 9.24375 20.0532 12.5047 20.0532C14.1891 20.0532 15.6359 19.622 16.7578 18.8595H16.7531C17.4045 18.4279 17.9618 17.8688 18.3912 17.216C18.8206 16.5632 19.1133 15.8301 19.2516 15.061H12.5V10.2485L24.2891 10.247Z" fill="white"/>
</svg>
