<svg width="33" height="33" viewBox="0 0 33 33" fill="none" xmlns="http://www.w3.org/2000/svg">
<path d="M9.5 7.7515C9.49964 8.48084 9.20955 9.18017 8.69357 9.69564C8.17759 10.2111 7.47797 10.5005 6.74863 10.5001C6.01928 10.4998 5.31995 10.2097 4.80448 9.69369C4.28902 9.17771 3.99964 8.47809 4 7.74875C4.00037 7.0194 4.29045 6.32007 4.80643 5.80461C5.32241 5.28914 6.02203 4.99976 6.75138 5.00012C7.48072 5.00049 8.18005 5.29057 8.69552 5.80655C9.21098 6.32253 9.50037 7.02215 9.5 7.7515ZM9.5825 12.5365H4.0825V29.7515H9.5825V12.5365ZM18.2725 12.5365H12.8V29.7515H18.2175V20.7177C18.2175 15.6852 24.7762 15.2177 24.7762 20.7177V29.7515H30.2075V18.8477C30.2075 10.364 20.5 10.6802 18.2175 14.8465L18.2725 12.5365Z" fill="white"/>
</svg>
