<svg width="28" height="26" viewBox="0 0 28 26" fill="none" xmlns="http://www.w3.org/2000/svg">
<path d="M7.54 10.1341H6.67C5.48276 10.0912 4.29936 10.2927 3.19326 10.7262C2.08715 11.1597 1.08194 11.8159 0.24 12.6541L0 12.9341V21.2141H4.08V16.5141L4.63 15.8941L4.88 15.6041C6.18192 14.2666 7.80278 13.2824 9.59 12.7441C8.6952 12.0632 7.98948 11.1647 7.54 10.1341Z" fill="#EFEFEF"/>
<path d="M26.88 12.6243C26.038 11.7861 25.0328 11.1299 23.9267 10.6964C22.8206 10.2629 21.6372 10.0614 20.45 10.1043C20.0859 10.1053 19.722 10.1253 19.36 10.1643C18.9021 11.1312 18.2156 11.9721 17.36 12.6143C19.268 13.1421 20.9964 14.1792 22.36 15.6143L22.61 15.8943L23.15 16.5143V21.2243H27.09V12.9043L26.88 12.6243Z" fill="#EFEFEF"/>
<path d="M6.64003 8.18419H6.95003C6.806 6.94743 7.02301 5.69542 7.57486 4.57928C8.12672 3.46314 8.98984 2.53059 10.06 1.89419C9.6721 1.30154 9.1369 0.819796 8.50684 0.496136C7.87678 0.172475 7.17347 0.0179936 6.46577 0.0478169C5.75807 0.0776401 5.07025 0.290746 4.46965 0.666268C3.86906 1.04179 3.37629 1.56685 3.03959 2.19004C2.70289 2.81323 2.53381 3.51317 2.5489 4.22134C2.564 4.92951 2.76275 5.62162 3.12569 6.22989C3.48864 6.83817 4.00333 7.34176 4.61938 7.69135C5.23543 8.04094 5.93171 8.22455 6.64003 8.22419V8.18419Z" fill="#EFEFEF"/>
<path d="M19.97 7.4342C19.9822 7.66404 19.9822 7.89436 19.97 8.1242C20.1619 8.15462 20.3557 8.17133 20.55 8.1742H20.74C21.4452 8.13659 22.1287 7.91703 22.7239 7.53688C23.319 7.15673 23.8056 6.62894 24.1363 6.00491C24.4669 5.38088 24.6303 4.68187 24.6106 3.97593C24.5909 3.26999 24.3888 2.58118 24.0239 1.97655C23.6589 1.37193 23.1437 0.8721 22.5282 0.525726C21.9128 0.179352 21.2182 -0.00176362 20.5119 1.29448e-05C19.8057 0.00178951 19.112 0.186398 18.4983 0.535864C17.8846 0.88533 17.3719 1.38775 17.01 1.9942C17.9151 2.58513 18.6593 3.3915 19.1759 4.34097C19.6926 5.29043 19.9654 6.35329 19.97 7.4342Z" fill="#EFEFEF"/>
<path d="M13.4101 11.9141C15.8788 11.9141 17.8801 9.91283 17.8801 7.44412C17.8801 4.97541 15.8788 2.97412 13.4101 2.97412C10.9414 2.97412 8.94006 4.97541 8.94006 7.44412C8.94006 9.91283 10.9414 11.9141 13.4101 11.9141Z" fill="#EFEFEF"/>
<path d="M13.65 14.2941C12.3441 14.2414 11.041 14.4534 9.81908 14.9174C8.59719 15.3814 7.48181 16.0878 6.54004 16.9941L6.29004 17.2741V23.6041C6.29394 23.8103 6.33843 24.0137 6.42095 24.2027C6.50348 24.3917 6.62243 24.5626 6.77101 24.7056C6.91959 24.8486 7.09489 24.9609 7.2869 25.0362C7.47891 25.1114 7.68385 25.1481 7.89004 25.1441H19.38C19.5862 25.1481 19.7912 25.1114 19.9832 25.0362C20.1752 24.9609 20.3505 24.8486 20.4991 24.7056C20.6476 24.5626 20.7666 24.3917 20.8491 24.2027C20.9317 24.0137 20.9761 23.8103 20.98 23.6041V17.2941L20.74 16.9941C19.8044 16.085 18.6929 15.3766 17.4737 14.9124C16.2545 14.4481 14.9534 14.2377 13.65 14.2941Z" fill="#EFEFEF"/>
</svg>
