<svg width="208" height="208" viewBox="0 0 208 208" fill="none" xmlns="http://www.w3.org/2000/svg">
<path d="M104 0C83.4307 0 63.3234 6.09949 46.2207 17.5272C29.118 28.9548 15.788 45.1974 7.91653 64.2009C0.0450158 83.2044 -2.01453 104.115 1.99833 124.289C6.0112 144.463 15.9162 162.994 30.4609 177.539C45.0056 192.084 63.5366 201.989 83.7106 206.002C103.885 210.015 124.796 207.955 143.799 200.083C162.803 192.212 179.045 178.882 190.473 161.779C201.901 144.677 208 124.569 208 104C207.971 76.4264 197.004 49.9905 177.507 30.4931C158.009 10.9956 131.574 0.0291182 104 0ZM177.23 146.26C171.6 155.26 162.9 160 152.07 160C131.34 160 117.26 134.69 102.35 107.89C91.47 88.33 77.93 64 66.61 64C54.18 64 40 92.88 40 118.21C40 126.47 41.5 133.21 44.34 137.77C47 142 50.68 144 55.93 144C62.01 144 69.45 137 78.67 122.49C79.8395 120.77 81.633 119.573 83.6702 119.153C85.7074 118.733 87.8281 119.123 89.5826 120.24C91.3372 121.357 92.5876 123.114 93.0687 125.138C93.5499 127.161 93.2239 129.293 92.16 131.08C75.84 156.71 64.22 160 55.93 160C45.1 160 36.4 155.25 30.77 146.26C26.34 139.18 24 129.48 24 118.26C24.1764 102.552 27.9387 87.0923 35 73.06C43.34 56.9 54.57 48 66.61 48C87.34 48 101.42 73.31 116.33 100.11C127.21 119.66 140.75 144 152.07 144C157.32 144 161 142 163.66 137.77C166.5 133.24 168 126.47 168 118.21C168 92.88 153.82 64 141.39 64C137.99 64 134.04 66.31 129.65 70.88C128.922 71.6377 128.052 72.2446 127.089 72.666C126.126 73.0874 125.09 73.315 124.039 73.3359C122.988 73.3568 121.944 73.1705 120.965 72.7878C119.986 72.405 119.093 71.8332 118.335 71.105C117.577 70.3768 116.97 69.5065 116.549 68.5438C116.128 67.5811 115.9 66.5448 115.879 65.4941C115.858 64.4434 116.044 63.3989 116.427 62.4202C116.81 61.4415 117.382 60.5477 118.11 59.79C125.74 51.86 133.35 48 141.39 48C153.39 48 164.66 56.9 173.01 73.06C180.064 87.0771 183.826 102.519 184.01 118.21C184 129.48 181.66 139.18 177.23 146.26Z" fill="black"/>
</svg>
