<svg xmlns="http://www.w3.org/2000/svg" viewBox="0 0 637.53 565.46"><defs><style>.cls-1{fill:#92e3a9;}.cls-2{fill:#d3cdf1;}.cls-3{opacity:0.3;}.cls-16,.cls-4,.cls-5,.cls-9{fill:none;}.cls-4{stroke:#000;}.cls-13,.cls-14,.cls-15,.cls-16,.cls-4,.cls-5{stroke-miterlimit:10;}.cls-10,.cls-11,.cls-12,.cls-13,.cls-15,.cls-5,.cls-9{stroke:#263238;}.cls-10,.cls-15,.cls-6{fill:#263238;}.cls-7{fill:#5648a8;}.cls-14,.cls-8{fill:#6c5ad2;}.cls-10,.cls-11,.cls-12,.cls-9{stroke-linecap:round;stroke-linejoin:round;}.cls-11{fill:#ababab;}.cls-12,.cls-13{fill:#fff;}.cls-14{stroke:#5648a8;}.cls-16{stroke:#8f8f8f;}</style></defs><g id="Background_Simple" data-name="Background Simple"><path class="cls-1" d="M434.16,61.75S328.77,22.49,226.53,81.59,73.82,259.94,30.39,355.42,13.85,548.93,93,594.47,224.84,575,335.09,573.22s140.11,14.6,230.83-47.6S671.34,314,597.77,202.35,434.16,61.75,434.16,61.75Z" transform="translate(-9.71 -48.97)"/><path class="cls-2" d="M434.16,61.75S328.77,22.49,226.53,81.59,73.82,259.94,30.39,355.42,13.85,548.93,93,594.47,224.84,575,335.09,573.22s140.11,14.6,230.83-47.6S671.34,314,597.77,202.35,434.16,61.75,434.16,61.75Z" transform="translate(-9.71 -48.97)"/></g><g id="Clock"><g class="cls-3"><circle class="cls-4" cx="92.88" cy="136.82" r="47.66" transform="translate(-79.25 56.78) rotate(-45)"/><circle class="cls-4" cx="83.18" cy="87.85" r="44.41"/><polyline class="cls-4" points="91.63 101.19 83.18 87.85 46.77 87.85"/></g></g><g id="Window"><g class="cls-3"><rect class="cls-4" x="436.87" y="40.89" width="48.41" height="98.51"/><rect class="cls-4" x="491.22" y="40.89" width="48.41" height="98.51"/><rect class="cls-4" x="545.57" y="40.89" width="48.41" height="98.51"/><rect class="cls-4" x="436.87" y="144.5" width="48.41" height="98.51"/><rect class="cls-4" x="491.22" y="144.5" width="48.41" height="98.51"/><rect class="cls-4" x="545.57" y="144.5" width="48.41" height="98.51"/><rect class="cls-4" x="436.87" y="248.11" width="48.41" height="98.51"/><rect class="cls-4" x="491.22" y="248.11" width="48.41" height="98.51"/><rect class="cls-4" x="545.57" y="248.11" width="48.41" height="98.51"/><rect class="cls-4" x="436.87" y="351.71" width="48.41" height="98.51"/><rect class="cls-4" x="491.22" y="351.71" width="48.41" height="98.51"/><rect class="cls-4" x="545.57" y="351.71" width="48.41" height="98.51"/></g></g><g id="Floor"><line class="cls-5" x1="24.44" y1="460.47" x2="637.53" y2="460.47"/></g><g id="Plant"><path class="cls-6" d="M73.07,377.64h0a.11.11,0,0,1,.06-.14.11.11,0,0,1,.15.06,149.69,149.69,0,0,1,7.84,24.59,228.75,228.75,0,0,1,4.33,25.49l.62,6.45c.09,1.07.21,2.14.28,3.22l.18,3.23c.09,2.16.23,4.31.29,6.47l-.06,6.48-.07,3.23c0,1.08-.13,2.16-.2,3.24-.17,2.15-.3,4.3-.49,6.45-.42,4.29-1.06,8.56-1.73,12.81a.11.11,0,0,1-.11.1.11.11,0,0,1-.11-.12h0c0-2.16.1-4.31.15-6.46s.25-4.28.22-6.42,0-4.29.07-6.43l.06-3.21-.06-3.21,0-6.42-.17-6.41-.07-3.21c0-1.07-.12-2.14-.18-3.2l-.39-6.41A229.58,229.58,0,0,0,80,402.38,149.49,149.49,0,0,0,73.07,377.64Z" transform="translate(-9.71 -48.97)"/><path class="cls-6" d="M72.15,411.19a.13.13,0,0,1,.07-.14.12.12,0,0,1,.15.07,155,155,0,0,1,4.57,16.3,152.11,152.11,0,0,1,2.69,16.75c.57,5.61,1.2,11.23,1.28,16.88a143,143,0,0,1-.6,16.93.13.13,0,0,1-.1.1.11.11,0,0,1-.13-.1c-.65-5.62-1-11.23-1.44-16.83s-.45-11.23-.82-16.83a146.52,146.52,0,0,0-2-16.68A150.12,150.12,0,0,0,72.15,411.19Z" transform="translate(-9.71 -48.97)"/><path class="cls-6" d="M53.55,423a.12.12,0,0,1,.16,0,56.89,56.89,0,0,1,12.44,10.85A49.52,49.52,0,0,1,71,440.57l1,1.88.78,2a18,18,0,0,1,.68,2c.2.67.43,1.33.61,2a79.66,79.66,0,0,1,2.57,16.4A95.1,95.1,0,0,1,76,481.34a.13.13,0,0,1-.11.1.12.12,0,0,1-.12-.11L74.39,465c-.56-5.4-.91-10.84-2.07-16.13-.15-.65-.34-1.3-.5-1.95a17.9,17.9,0,0,0-.58-1.93l-.66-1.89-.86-1.78a48.46,48.46,0,0,0-4.45-6.77,56.22,56.22,0,0,0-11.68-11.37h0A.11.11,0,0,1,53.55,423Z" transform="translate(-9.71 -48.97)"/><path class="cls-6" d="M62.55,444a18,18,0,0,1,5.66,6.8,40.17,40.17,0,0,1,3.17,8.33c.22.71.4,1.44.55,2.16l.52,2.18A38.39,38.39,0,0,1,73,467.9c0,1.48.06,3,0,4.44a38.76,38.76,0,0,1-.59,4.42.12.12,0,0,1-.09.09.11.11,0,0,1-.13-.09,39.83,39.83,0,0,1-.79-4.35c-.23-1.44-.45-2.87-.62-4.3s-.4-2.85-.51-4.29-.31-2.87-.62-4.27a38.29,38.29,0,0,0-2.42-8.25,18.34,18.34,0,0,0-4.75-7.09l0,0a.11.11,0,0,1,0-.14A.1.1,0,0,1,62.55,444Z" transform="translate(-9.71 -48.97)"/><path class="cls-6" d="M88.64,460.4c.61-7.26,1.81-14.45,2.94-21.64s2.39-14.35,3.71-21.5,2.78-14.28,4.32-21.38a.11.11,0,0,1,.22,0c-1.24,7.16-2.36,14.34-3.43,21.53s-2.11,14.37-3,21.57-1.58,14.42-2.48,21.62l-2.66,21.61a.12.12,0,0,1-.23,0c-.08-1.82-.08-3.65-.13-5.47s.08-3.64.11-5.47C88.06,467.66,88.37,464,88.64,460.4Z" transform="translate(-9.71 -48.97)"/><path class="cls-6" d="M93,460.29c.38-2.87.91-5.73,1.46-8.58l1-4.24c.34-1.42.65-2.83,1.07-4.23a120.38,120.38,0,0,1,5.55-16.51l.87-2,1-2c.61-1.32,1.35-2.58,2.06-3.84a32.36,32.36,0,0,1,5.24-6.95.11.11,0,0,1,.16.16h0a32.14,32.14,0,0,0-4.79,7.11c-.64,1.29-1.3,2.56-1.84,3.89l-.86,2-.75,2a118.82,118.82,0,0,0-4.84,16.52c-.66,2.8-1.1,5.65-1.64,8.46L96,456.39c-.25,1.41-.55,2.82-.75,4.24-.45,2.84-1,5.67-1.47,8.52s-1,5.69-1.56,8.53a.12.12,0,0,1-.12.1.11.11,0,0,1-.11-.12q0-4.35.2-8.7C92.35,466.06,92.69,463.18,93,460.29Z" transform="translate(-9.71 -48.97)"/><path class="cls-6" d="M99,460.67c1.34-3.82,2.9-7.55,4.59-11.2a102.64,102.64,0,0,1,5.79-10.61.12.12,0,0,1,.15,0,.1.1,0,0,1,0,.15,97.56,97.56,0,0,0-4.93,10.94c-1.48,3.71-2.81,7.48-3.92,11.31s-2,7.72-3,11.57-1.93,7.71-3.11,11.6a.14.14,0,0,1-.11.09.12.12,0,0,1-.12-.12,57.63,57.63,0,0,1,1.13-12.08A74.59,74.59,0,0,1,99,460.67Z" transform="translate(-9.71 -48.97)"/><path class="cls-6" d="M99.26,473.36a26,26,0,0,1,3.19-6.71,27.87,27.87,0,0,1,4.66-5.78,20.85,20.85,0,0,1,3-2.23,12.08,12.08,0,0,1,3.35-1.52.11.11,0,0,1,.13.07.1.1,0,0,1,0,.14h0a16.81,16.81,0,0,0-5.57,4.33,26.45,26.45,0,0,0-3.88,5.87c-1.1,2.09-1.67,4.39-2.63,6.54-.42,1.1-.84,2.21-1.33,3.31a27.12,27.12,0,0,1-1.46,3.36h0a.14.14,0,0,1-.1.07.12.12,0,0,1-.12-.12,27,27,0,0,1,.14-3.71C98.71,475.77,99,474.56,99.26,473.36Z" transform="translate(-9.71 -48.97)"/><path class="cls-7" d="M98.81,406.28a20.67,20.67,0,0,0,14.64-15.57c2.75-12.81-6.1-7.32,1.83-27.46s6.11-24.71,3.36-30.51-4.27-4-6.71,3.66-11.29,19.53-14.65,41.81S98.81,406.28,98.81,406.28Z" transform="translate(-9.71 -48.97)"/><path class="cls-7" d="M75.31,384.61s7.94-2.74,8.24-17.69-5.8-11.9-6.71-30.52-2.14-31.73-5.49-32-12.21,9.15-15.26,29.9,4,34.48,10.07,40.58S75.31,384.61,75.31,384.61Z" transform="translate(-9.71 -48.97)"/><path class="cls-7" d="M103.08,424.28s1.83-11,5.49-16.17,11.6-9.77,16.78-19.84,11-14.95,10.68-.61-6.71,21.67-14.64,26.55S103.08,424.28,103.08,424.28Z" transform="translate(-9.71 -48.97)"/><path class="cls-8" d="M106.43,443.2s7.33-14,18-24.41,19.22-15.57,16.17-10.38-6.71,4.88-11.9,14-3.66,15.86-11,21.05S106.43,443.2,106.43,443.2Z" transform="translate(-9.71 -48.97)"/><path class="cls-7" d="M107.35,461.2c.3-.92.61-7.63,11-13.12s20.14-3.36,18.92-.61-7.63,7.32-14,10.07S107.35,461.2,107.35,461.2Z" transform="translate(-9.71 -48.97)"/><path class="cls-7" d="M75.92,424.89s4.58-5.8,2.14-18-7.93-9.16-14-15.56-4.88-7.33-11-14-11.6-10.37-14-7.63,1.22,11.29,4.88,16.17,9.46,7.33,12.21,13.43,1.53,15.86,8.54,20.44S75.92,424.89,75.92,424.89Z" transform="translate(-9.71 -48.97)"/><path class="cls-8" d="M60.67,428.24s-11-12.51-18.92-21.66-11-16.17-11.29-10.07-2.75,11,3.66,18.92S60.67,428.24,60.67,428.24Z" transform="translate(-9.71 -48.97)"/><path class="cls-8" d="M66.46,448.38s.31-4.88-17.08-16.17-24.72-13.42-22.89-8.85,9.46,9.16,17.7,17.39S66.46,448.38,66.46,448.38Z" transform="translate(-9.71 -48.97)"/><path class="cls-9" d="M98.08,405s4.08-21.89,8.35-37.45,7-25,7-25" transform="translate(-9.71 -48.97)"/><path class="cls-9" d="M76,384.84s-7.41-23.72-9.85-38.06.3-25,1.52-31.43" transform="translate(-9.71 -48.97)"/><path class="cls-9" d="M104,423.82a114.92,114.92,0,0,1,11.24-16c6.72-7.93,11.9-12.2,14.95-19.83" transform="translate(-9.71 -48.97)"/><path class="cls-9" d="M75.92,424.89s-2.44-14.65-8.24-22.28-17.39-19.52-22-27.15" transform="translate(-9.71 -48.97)"/><path class="cls-9" d="M108.07,460.86s10.26-6.68,17.59-10.34" transform="translate(-9.71 -48.97)"/><path class="cls-10" d="M75.9,541.71a9.16,9.16,0,0,1-9.13-8.39c-1.51-18.12-4.7-58.83-3-60.83,6.72-8.2,35.69-8.2,42.41,0,1.64,2-1.54,42.71-3.06,60.83A9.14,9.14,0,0,1,94,541.71Z" transform="translate(-9.71 -48.97)"/></g><g id="Chair"><rect class="cls-10" x="228.59" y="337.89" width="7.12" height="28.48"/><rect class="cls-10" x="338.49" y="337.89" width="7.12" height="28.48"/><path class="cls-11" d="M241.91,244.87h87.92a7.21,7.21,0,0,1,7.21,7.21V378.62a0,0,0,0,1,0,0H234.7a0,0,0,0,1,0,0V252.08A7.21,7.21,0,0,1,241.91,244.87Z"/><circle class="cls-12" cx="239.26" cy="487.4" r="5.34"/><path class="cls-12" d="M301,536.37a5.34,5.34,0,1,0-5.34,5.34A5.34,5.34,0,0,0,301,536.37Z" transform="translate(-9.71 -48.97)"/><path class="cls-12" d="M347.75,536.37a5.34,5.34,0,1,0-5.34,5.34A5.34,5.34,0,0,0,347.75,536.37Z" transform="translate(-9.71 -48.97)"/><polygon class="cls-10" points="290.8 460.59 290.8 372.61 281.43 372.61 281.43 460.02 281.09 460.26 232.59 479.83 232.59 485.62 240.16 485.62 240.16 481.61 282.18 475.43 282.96 485.62 288.56 485.62 289.34 475.5 330.92 481.61 330.92 485.62 338.49 485.62 338.49 479.83 290.8 460.59"/><rect class="cls-10" x="270.99" y="382.34" width="29.77" height="10.54"/><rect class="cls-11" x="226.33" y="359.39" width="119.09" height="23.57" rx="2.74"/><rect class="cls-11" x="220.13" y="321.43" width="14.68" height="21.8" rx="2.27"/><rect class="cls-11" x="336.48" y="321.43" width="14.68" height="21.8" rx="2.27"/></g><g id="Table"><rect class="cls-12" x="135.17" y="374.4" width="315.89" height="30.74" transform="translate(576.52 730.58) rotate(180)"/><rect class="cls-10" x="135.17" y="374.4" width="315.89" height="8.18" transform="translate(576.52 708.01) rotate(180)"/><polygon class="cls-12" points="438.02 492.74 442.5 492.74 443.99 325 436.53 325 438.02 492.74"/><polygon class="cls-12" points="123.88 492.74 128.36 492.74 129.85 325 122.39 325 123.88 492.74"/><rect class="cls-12" x="127.93" y="369.92" width="330.29" height="6.94" transform="translate(576.45 697.82) rotate(180)"/><rect class="cls-12" x="253.36" y="366.24" width="99.38" height="4.1" transform="translate(596.4 687.61) rotate(180)"/><rect class="cls-10" x="330.41" y="270.99" width="119.57" height="80.57" transform="translate(770.67 573.59) rotate(180)"/><rect class="cls-11" x="356.22" y="365.8" width="48.39" height="4.54" transform="translate(751.13 687.18) rotate(180)"/><rect class="cls-11" x="375.76" y="318.18" width="28.85" height="52.16" transform="translate(770.67 639.55) rotate(180)"/></g><g id="Lines"><line class="cls-5" x1="276.29" y1="47.39" x2="289.77" y2="50.76"/><line class="cls-5" x1="298.19" y1="20.43" x2="302.12" y2="29.42"/><line class="cls-5" x1="377.93" y1="47.39" x2="364.45" y2="50.76"/><line class="cls-5" x1="356.03" y1="20.43" x2="352.1" y2="29.42"/><line class="cls-5" x1="327.95" y1="8.64" x2="327.95" y2="19.87"/></g><g id="Character_3" data-name="Character 3"><path class="cls-13" d="M349.56,121.75l-2.75-17s-1.38-11.51-1.38-15.29-1.37-4.12-1.89-3.43l-1.54.86s-.52-4.47-1.89-3.09a5.89,5.89,0,0,0-1.55,3.26,23.7,23.7,0,0,0-2.23,6.18,56.64,56.64,0,0,0-.68,6l-.86-1.15s-.52-5.67-.69-6.87-2.06.17-2.23,4.47c-.14,3.35,1.82,11.93,2.69,15.54-.47,3.85-.87,8.67-.29,10.9a22.55,22.55,0,0,0,3.78,7.56c.69,1,4.81,12.19,4.81,12.19l12.36-5.49Z" transform="translate(-9.71 -48.97)"/><path class="cls-13" d="M344.92,114.88s-3.61-6.7-4.3-7.9-4.8-6.18-5.83-8.93-3.44,1-2.41,4,5.15,8.24,5.15,8.24-1.37,4.64.52,8.59a12.89,12.89,0,0,0,5.67,5.67" transform="translate(-9.71 -48.97)"/><path class="cls-5" d="M342,86.89s-1.2,13.39-.69,18.54" transform="translate(-9.71 -48.97)"/><path class="cls-5" d="M338.56,87.06s-1.2,10.65-.51,15.11" transform="translate(-9.71 -48.97)"/><path class="cls-14" d="M440.48,209.83s-21.15-7.37-22.58-7.37-16.23-1.06-16.23-1.06l-17.53-9.16L355.9,134.91,339.26,143s5.95,30.67,10.7,47.55,10.18,26.59,10.18,26.59l37.79,28.12,1.9,2.62Z" transform="translate(-9.71 -48.97)"/><path class="cls-14" d="M380.58,279.25s-7.85,34.23-7.85,52.53.48,23.06,1.67,23.78,14.74,3.09,15.92,2.85,4.76-1.43,4.76-1.43,17.35-82.25,19.25-92.47,4.52-32.57,4.52-32.57-20,17.12-25.44,23.06-5,6.18-7.37,10.7A130.4,130.4,0,0,0,380.58,279.25Z" transform="translate(-9.71 -48.97)"/><path class="cls-13" d="M389.63,540.72s-6.37,10.53-7.48,11.64-10.81,6.93-13.58,7.76-5.82,2.5-5.82,5.27,9.14,4.15,13.86,4.15,18.57-.83,20.23-.83a45.94,45.94,0,0,1,6.1,0c1.38.28,8.31,1.39,10.25.56s3.61-7.76,3.05-10.81-2.21-10-2.21-10Z" transform="translate(-9.71 -48.97)"/><path class="cls-13" d="M474.45,551.25,469.74,559a101.18,101.18,0,0,1-9.7,7.76c-8.5,5.31,3.61,8.42,9.15,8,3.88-.26,11.08-.28,13.3-1.38a175.63,175.63,0,0,0,15-10c3.6-2.78,3.88-5.82,3.32-9.43s-3-9.14-3-9.14-14.69-4.72-18.84-1.39A11.78,11.78,0,0,0,474.45,551.25Z" transform="translate(-9.71 -48.97)"/><path class="cls-15" d="M393.17,349l-6.29,33s-11,68.9-10.7,71.42S389.73,527.1,390,529.93s-2.83,5.66-2.83,5.66l.63,6.93s7.86,5.34,13.21,6.6a89.31,89.31,0,0,0,13.53,1.58s2.83-6,2.83-6.93-1.89-7.23-1.89-8.18-5-84.06-5-84.06L422.75,404s16.67,50.34,18.25,53.8,31.91,80.36,31.91,80.36-2.83,3.78-1.88,6.61,2.2,8.18,2.2,8.18,6.92-7.87,10.38-5.35A10.16,10.16,0,0,1,487.7,553l11-4.41s1-4.4.32-6.6-2.21.63-2.21-7.55-10.83-57.08-13-64.63-11.33-21.71-11.33-21.71l-4.09-76.14V354.31Z" transform="translate(-9.71 -48.97)"/><path class="cls-13" d="M446.09,213.67s-8.11-2.57-11.42-1.1S404.13,243,403.76,244.79s-13.87,92.31-16.08,99.29,9.92,15.79,9.92,15.79l7.35,3.31,6.24-7.35-.36,8.82s19.1.36,25-.37,28.65-6.61,28.65-6.61,4.77-79.35,5.14-80.82,4-51.79,4-51.79l-7-4.41Z" transform="translate(-9.71 -48.97)"/><path class="cls-13" d="M446,235.63l5.14,10.28s14.92-16.15,16.63-20.06,3.18-4.16,2.2-6.6a18,18,0,0,0-3.42-4.9s-22.75-.73-25.68.74-11,19.81-11.5,21l-.49,1.23,15.41-2.69Z" transform="translate(-9.71 -48.97)"/><path class="cls-14" d="M439.06,215.78s-50.4,46.83-53,49.92-5.46,13.55-5.46,13.55,4.51-20,6.18-23.06,37.32-39.7,37.32-39.7l9.51-6.66,9.75,2.38Z" transform="translate(-9.71 -48.97)"/><path class="cls-13" d="M444.51,152.71s-10,10.52-9.78,12.48a19.21,19.21,0,0,1-.24,4.65S424,178.4,423,178.64s-1,2-.25,3.43,2,1.71,2.45,2.93.25,4.65-1.71,11.5-2.94,7.83-1,9.05,16.14,6.11,16.14,6.11.49,20.55,1.47,23.49,5.87.48,5.87.48l20.55-19.56v-3.43l16.14-19.32s4.41-15.9-.49-23.48-30.57-18.35-31.31-18.59S446.72,150.51,444.51,152.71Z" transform="translate(-9.71 -48.97)"/><path class="cls-15" d="M462.37,146.6s4.16-2.45,1.47-3.67a9,9,0,0,0-6.36,0c-.74.24.73-7.34-3.43-5.14s-9.54,7.59-10.76,11.26,2.45,10.76,5.63,11.25a90.08,90.08,0,0,1,10.27,2.93,3.33,3.33,0,0,1,.73,4.16c-1.22,2.69-8.31,8.07-7.33,9.54s3.42,4.89,3.42,4.89-2.45,4.4-2,5.63a3.49,3.49,0,0,0,2,1.71s4.4-2.69,8.07-1.71,2.2,7.09.74,9.78-3.43,5.87-3.43,5.87,4.16,9.54,5.14,9.54,13-12,18.1-17.36,7.34-14.68,6.11-22.51S476.56,154.43,472.4,152,462.37,146.6,462.37,146.6Z" transform="translate(-9.71 -48.97)"/><path class="cls-5" d="M427.88,174c-2.2-1.46-.49-8.31,1.47-9.05s5.14,4.9,5.14,4.9,10.51,8.07,10.76,9.54-5.63,5.87-8.81,6.11-4.4.25-4.4-4.4a18,18,0,0,1,1.71-7.83" transform="translate(-9.71 -48.97)"/><line class="cls-5" x1="435.54" y1="130.41" x2="448.75" y2="139.46"/><path class="cls-5" d="M438.89,169.84s4.89.49,6.85,4.89" transform="translate(-9.71 -48.97)"/><path class="cls-5" d="M427.39,191.12a13.52,13.52,0,0,0,9.54,0" transform="translate(-9.71 -48.97)"/><path class="cls-5" d="M461.39,203.1s-5.13,1.23-7.58,0" transform="translate(-9.71 -48.97)"/><polygon class="cls-15" points="428.94 162.69 438.23 162.21 429.18 170.77 428.94 162.69"/><path class="cls-14" d="M470,219.25s-4.92,8.46-9.72,25.38-9.84,68.15-9.84,73.7,12.87,72.19,13.88,74.72,7.32,2.78,7.32,2.78,18.68-12.63,19.69-16.16-11.86-62.85-11.86-62.85,23.47-76.74,22-77.75S470,219.25,470,219.25Z" transform="translate(-9.71 -48.97)"/><path class="cls-5" d="M478.66,227.71s-15.65,62.6-19.44,73.46a62.74,62.74,0,0,1-8.83,17.16" transform="translate(-9.71 -48.97)"/><path class="cls-13" d="M473.44,385a62.55,62.55,0,0,1-3.64,5.09c-1.27,1.45-4.72,3.09-3.08,4.18s6-.91,7.08-2.55Z" transform="translate(-9.71 -48.97)"/><path class="cls-13" d="M483.33,370.92s-9.53,9.19-10.07,10.1-1.09,8.53-1.09,10.71a3.77,3.77,0,0,0,2.18,3.64,12.46,12.46,0,0,0,2.18.18l2.36-.36a14.89,14.89,0,0,1,4.36.36c2.18.54,6.54.54,7.63-.55a14.79,14.79,0,0,0,2.17-3.81,7.93,7.93,0,0,0,1.64-3.63c.36-2.18,2.54-13.08,2.54-13.08S481.79,369.17,483.33,370.92Z" transform="translate(-9.71 -48.97)"/><line class="cls-5" x1="466.82" y1="346.58" x2="468.45" y2="336.41"/><line class="cls-5" x1="471.54" y1="346.04" x2="473.36" y2="337.32"/><line class="cls-5" x1="476.99" y1="346.4" x2="478.63" y2="338.22"/><path class="cls-14" d="M501.38,239.07s25.73,56.92,29.26,65.75.76,12,0,14.31-29.89,57.34-29.89,57.34l-17.42-5.55,17.95-57.73L488,288Z" transform="translate(-9.71 -48.97)"/></g><g id="Character_2" data-name="Character 2"><path class="cls-13" d="M361.66,139.79s.18-6.88,1.41-10.95.36-5.83-.53-5.47-1.94.53-2.47,3.71a37.56,37.56,0,0,0-.71,6.71C359.36,135.73,361.66,139.79,361.66,139.79Z" transform="translate(-9.71 -48.97)"/><path class="cls-13" d="M342.58,119.72c.31-.55,2.32,1.61,3.71,2.9-.55-1.14-.69-1.2-1.59-3.14a6.14,6.14,0,0,1-.7-4.24c.47-1.84,4.24,2.25,5.34,4.38-.56-1.71-1.72-5.26-2-6.32-.35-1.41-.17-3.36.89-4.06s2.65,3,2.65,3a7.57,7.57,0,0,1,3.18,2.83l6,12,.53,8.48,5.48,20.84,12.71,17.66-14,6.81-8.22-19.53a20.7,20.7,0,0,1-3.71-4.24c-1.16-1.8-2.22-8.46-2.85-13.87a24.77,24.77,0,0,1-1.08-4.13c-.52-3-1.45-10-1.45-10s-2.7-3.21-4.15-5.39C342.45,122.38,342.16,120.45,342.58,119.72Z" transform="translate(-9.71 -48.97)"/><path class="cls-5" d="M349.65,120.54a54,54,0,0,1,3.29,5.92,35.59,35.59,0,0,1,1.35,4.35" transform="translate(-9.71 -48.97)"/><path class="cls-5" d="M350.89,112.24s4.59,10.77,5.65,12.36a14.52,14.52,0,0,1,1.59,5.83" transform="translate(-9.71 -48.97)"/><path class="cls-5" d="M346.29,122.62s3.44,3.22,3.85,4.15,1.76,6,1.76,6" transform="translate(-9.71 -48.97)"/><path class="cls-13" d="M457.57,481.62s1.79,24.85-.67,36.93-11.42,30-12.31,32.46-8.51,30-8.28,31.11,5.59,10.75,4.92,15.45-1.79,6-3.8,6.49-11.64.22-18.13,5.59-16.12,4.25-19.48,4-12.08-.22-12.53-2,4.7-5.82,7.39-6.94,9.84-7.16,11.86-9.18,9.62-11.86,11.19-15.67,6-62,7.39-70.95,2.23-19,2-24.62a21.86,21.86,0,0,1,1.12-8.73Z" transform="translate(-9.71 -48.97)"/><path class="cls-14" d="M394.68,604.73a25.43,25.43,0,0,0,4.33-2.82c1.88.85,4.51,1.92,5.74,1.92,2,0,16.79-9.85,21.93-12.76,4.17-2.35,10.1-3,12.21-3.09,1.37,3.25,2.7,7.1,2.34,9.59-.67,4.7-1.79,6-3.8,6.49s-11.64.22-18.13,5.59-16.12,4.25-19.48,4-12.08-.22-12.53-2S392,605.85,394.68,604.73Z" transform="translate(-9.71 -48.97)"/><path class="cls-13" d="M530.84,475s7.89,13.68,11.31,27.1,2.9,70.78,3.42,71.84,5.27,12.1,7.63,16.84,8.16,11.84,8.16,13.94-4.21,2.11-5,2.11H541.89s-3.95-1.32-4.74-2.9-1.31-8.42-3.15-10.52-6.32-7.63-6.58-10.53S529,571.06,529,569s-5.79-25.53-7.63-31.58-11.06-21.84-12.11-35-2.1-18.95-2.1-18.95Z" transform="translate(-9.71 -48.97)"/><path class="cls-14" d="M540,571.09c3,.87,5.6,4,7.07,6.1,1.72,3.91,4.53,10.3,6.18,13.61,2.37,4.73,8.16,11.84,8.16,13.94s-4.21,2.11-5,2.11H541.89s-3.95-1.32-4.74-2.9-1.31-8.42-3.15-10.52-6.32-7.63-6.58-10.53c-.16-1.72.43-5.56.93-8.85A11.83,11.83,0,0,1,540,571.09Z" transform="translate(-9.71 -48.97)"/><path class="cls-15" d="M556.36,606.85H541.89s-3.95-1.32-4.74-2.9-1.31-8.42-3.15-10.52c-1.56-1.77-5-6-6.16-9l.7-.75s7.09-5.7,12.27-2.59,6.57,10.37,9.85,14,8.79,6.31,10.7,9.63C561.36,606.85,557.15,606.85,556.36,606.85Z" transform="translate(-9.71 -48.97)"/><path class="cls-14" d="M535.79,263.13s8.2,44.87,8.45,46.35,6.88,23.37,5.9,28.29-21.4,46.5-21.4,46.5-5.17-8.61-5.91-9.11,2-41.57,2-41.57l-8.12-26.33s0-26.83,3.45-32S534.39,260.56,535.79,263.13Z" transform="translate(-9.71 -48.97)"/><path class="cls-14" d="M519.29,312.86s11.63-3,18.12-9.47" transform="translate(-9.71 -48.97)"/><path class="cls-14" d="M524.7,322.05s8.93,5.69,18.13,5.69" transform="translate(-9.71 -48.97)"/><path class="cls-14" d="M538.28,364.53c-4.94,10.37-9.54,19.74-9.54,19.74s-5.17-8.61-5.91-9.11c-.27-.18-.08-5.78.27-12.81C529.05,366.43,534.45,365.94,538.28,364.53Z" transform="translate(-9.71 -48.97)"/><path class="cls-15" d="M514.75,340s11.48,29.57,16,41.15,5.14,73.36,5.14,73.36l-1.32,23.15s-25.78,12.1-55.26,10.79a226.08,226.08,0,0,1-54.73-9.74s.13-53.62,6.71-71.51,11.31-36.05,11.31-36.05l2.21-27.73Z" transform="translate(-9.71 -48.97)"/><path class="cls-14" d="M529.25,277.62c-.47,1.17-11.83,38.25-11.83,38.25s-2.71,8.86-2.95,9.84.49,12.55.74,13.54,2-1.64,1.31,1.8-3.94,3.69-5.9,4.68-17,6.39-32.72,6.15-33.46-3.45-33.46-3.45-2.71-4.92-3.2-7.13.9-7.22.9-7.22l-6.61-52.95s-27.39-36.2-31.13-38.77-8.64-6.31-10-7.48a15.11,15.11,0,0,1-3.74-6.07c-.93-2.58-25.85-47.94-25.85-47.94s6.31-6.77,7.95-7.24a52.07,52.07,0,0,1,5.38-.94l32.39,36.25s6.31,3,7.71,3.74,1.17,4.67,1.17,4.67l9.86,4.41,33.06,10.45L478.06,236s44.64,16.83,47.45,18.23,10.52,6.55,10.28,8.88-4.44,11.92-4.44,11.92" transform="translate(-9.71 -48.97)"/><path class="cls-5" d="M461.46,310.5c7.19,9.63,16.81,21.26,25,26.78" transform="translate(-9.71 -48.97)"/><path class="cls-5" d="M450.75,295.21s3.4,5.28,8.46,12.24" transform="translate(-9.71 -48.97)"/><path class="cls-5" d="M495.46,335.21a36,36,0,0,0,3.75,2.31" transform="translate(-9.71 -48.97)"/><path class="cls-5" d="M478.55,320.06a136.83,136.83,0,0,0,14.27,13.21" transform="translate(-9.71 -48.97)"/><path class="cls-5" d="M413.52,218.52s-10.75,12.39-10.52,8.65-.93-3.74,2.57-6.54" transform="translate(-9.71 -48.97)"/><path class="cls-13" d="M477.07,170.25s-13.12,7.81-14.23,10.32-1.68,8.66-3.07,10.05-9.49,3.35-9.21,5.3,3.35,7.82,3.35,7.82-.56,18.7-.56,20.1,1.67,2.23,3.35,2.51,5.58,1.39,5.58,1.39v4.47s10.88,3.63,12,3.63,8.37.56,8.37.56,14.8-9.77,19.54-23.73,0-24.84-5.3-31.26S477.07,170.25,477.07,170.25Z" transform="translate(-9.71 -48.97)"/><path class="cls-15" d="M479.31,207.93s9.21-7.54,11.44-1.4.28,9.49-2.51,10.61-9.49,3.35-9.49,3.35-6.42,14.79-7,20.93-4.47,10.88-2.51,15.07,4.74,5.86,18.42,7.26,29.25-.62,39-4.8,8.43-18.93,6.47-22.28S522,221.6,522.29,215.46s8.65-15.59,2.71-32.6c-5.26-15-30.9-24.34-37.88-23.5s-13.12,0-13.12,4.47.28,8.93,5,15.07,2,10.88.83,12-4.74,4.74-4.18,9.21A15.86,15.86,0,0,0,479.31,207.93Z" transform="translate(-9.71 -48.97)"/><path class="cls-5" d="M463.18,209.58s-1,4.19-7.42,2.9" transform="translate(-9.71 -48.97)"/><path class="cls-5" d="M467.37,187.33a4,4,0,0,0-3.87-3.06" transform="translate(-9.71 -48.97)"/><path class="cls-6" d="M461.83,190.93c-.64,1.27-.77,2.5-.29,2.74s1.38-.6,2-1.88.76-2.5.29-2.74S462.46,189.65,461.83,190.93Z" transform="translate(-9.71 -48.97)"/></g><g id="Character_1" data-name="Character 1"><path class="cls-13" d="M195.27,177.92s.72-1.45-1.45-3.62-11.84-8.21-14.74-10.15-6.28-8-17.87-1-19.33,19.56-20.77,28.5,4.34,19.81,15.21,25.85,19.33,7,19.33,7l1.2,2.17,34.3-5.07s5.56-5.8,4.84-9.18-6.77-14.73-6.77-14.73,3.87-5.8,2.66-7.49S195.27,177.92,195.27,177.92Z" transform="translate(-9.71 -48.97)"/><path class="cls-15" d="M181,207.15s-4.84,1.69-6.77,2.41-7.49-1-9.9-5.79,1.21-9.91,3.86-10.39,4.83,1.21,6.28,1,1.45-1.94,1.69-3.38-3.86-4.11-3.86-4.11,5.56-6,7-8.7-9.9-5.31-10.38-7.49,10.14-6.52,10.14-6.52c-2.9-1.93-6.28-8-17.87-1s-19.33,19.56-20.77,28.5,4.34,19.81,15.21,25.85A63.47,63.47,0,0,0,172.19,224l2.55-1.41s1.2-1.45,4.1-5.8A15.54,15.54,0,0,0,181,207.15Z" transform="translate(-9.71 -48.97)"/><path class="cls-5" d="M193.58,177s-3.14-.49-5.56,3.86" transform="translate(-9.71 -48.97)"/><path class="cls-5" d="M208.55,202.56s-4.59,1.93-10.63-3.38" transform="translate(-9.71 -48.97)"/><path class="cls-6" d="M194.87,184c.84,1.67.94,3.31.23,3.68s-2-.71-2.82-2.37-.94-3.32-.23-3.68S194,182.36,194.87,184Z" transform="translate(-9.71 -48.97)"/><path class="cls-14" d="M205.41,223.82s-28.74-2.42-30.43.72-1.45,9.42-1.45,9.42l31.64-7.25Z" transform="translate(-9.71 -48.97)"/><path class="cls-13" d="M252.19,210.24s58.74-64.11,59.1-65,2.13-21.64,2.31-23.08-.29-3.68,1.44-5.91,5-7.42,5-7.42a74.68,74.68,0,0,1,3.48-6.63c.87-1.11,3-2.8,4.42-4.33s3.5-2.74,4.61-1.88,1.64,4.49,1.64,4.49,1.46,0,1.92,2.27-3.15,14-3.3,15.17-1.24,12.26-2.53,18.92S327,148.07,325,150.51,301.73,184,296.4,189.87s-26.48,42.72-26.48,42.72Z" transform="translate(-9.71 -48.97)"/><path class="cls-5" d="M318.63,111.44s-2.92,8.19-3.06,9.32-.88,7.3-.88,7.3" transform="translate(-9.71 -48.97)"/><path class="cls-5" d="M325,101s-3.79,10.6-4.22,12.26-.81,3.89-.81,3.89" transform="translate(-9.71 -48.97)"/><path class="cls-5" d="M334.22,100.44a70.77,70.77,0,0,1-2.85,7.52,68.89,68.89,0,0,0-3.29,11.12" transform="translate(-9.71 -48.97)"/><path class="cls-5" d="M330.35,96.55s-4.44,11.32-5.08,13.75-1.49,6.66-1.78,7.2" transform="translate(-9.71 -48.97)"/><polygon class="cls-15" points="226.94 201.1 262.69 299.63 254.65 310.87 246.2 295.08 239.55 261.44 226.94 201.1"/><path class="cls-13" d="M159.52,322.74s-3.55,14.2-1.1,16.11,24.84,8.73,25.39,7.91.27-9.82-.28-12.28-4.64-5.73-4.64-5.73Z" transform="translate(-9.71 -48.97)"/><path class="cls-14" d="M165.79,281.53s-7.09,36-6.55,37.39,18.83,3.55,18.83,3.55Z" transform="translate(-9.71 -48.97)"/><path class="cls-14" d="M157.88,312.1s-2.18,11.46.54,12.83,19.11,5.73,20.47,3.82-.54-10.1-.54-10.1S159.24,309.92,157.88,312.1Z" transform="translate(-9.71 -48.97)"/><path class="cls-13" d="M233.91,581.19s8.88,6.67,11.42,7.3,11.43,3.49,12.38,5.08,0,6.66-1.27,8.57-19.36,4.76-27.93,3.81-27.29,3.49-29.2-2.54,1.27-14.92,1.27-14.92S228.19,582.46,233.91,581.19Z" transform="translate(-9.71 -48.97)"/><path class="cls-13" d="M251,600.55c-3.49,1-17.45,1.59-33.95,2.22-10.51.41-15.86-1.63-18.37-3.17a14.8,14.8,0,0,0,.59,3.81c1.91,6,20.63,1.58,29.2,2.54s26.66-1.91,27.93-3.81a11,11,0,0,0,1.26-3.36Z" transform="translate(-9.71 -48.97)"/><path class="cls-13" d="M117.44,562.15s-7.62,15.87-6.35,19.36,5.08,4.13,8.57,5.39,12.37,1,14.91,2.54,14.6,7,20.31,7.94,11.75-1.59,12.38-4.13-9.2-10.15-13-12.69-9.84-11.43-9.84-11.43Z" transform="translate(-9.71 -48.97)"/><path class="cls-13" d="M130.13,585.32c-7.06-1.7-16.87-5.9-18.94-6.8a6.16,6.16,0,0,0-.1,3c1.27,3.49,5.08,4.13,8.57,5.39s12.37,1,14.91,2.54,14.6,7,20.31,7.94,11.75-1.59,12.38-4.13a2.84,2.84,0,0,0-.75-2c-2.65,1.6-6.26,3.45-9.09,3.63C152.35,595.16,138.06,587.22,130.13,585.32Z" transform="translate(-9.71 -48.97)"/><path class="cls-15" d="M180.29,361s-7,26.93-7.32,34.55a141.7,141.7,0,0,0,.32,15.23s-5.08,3.81-4.12,7a20.24,20.24,0,0,0,2.53,5.4s-12.06,46-13.64,48.24-18.41,28.24-22.85,37.13-14.92,46-14.92,46-2.22,2.23-2.54,4.45-1,6-1,6,3.49,7,13,8.25,14.6-.64,14.6-.64a15.28,15.28,0,0,0,2.22-5.39c.64-3.18,1.59-8.25,1.59-8.25L166,528.19,195.51,474l8.88-25.38s4.13,37.44,3.81,39-8.57,30.12-8.57,44.08,1,43.17,1,43.17-2.53,4.44-1.9,7l.63,2.54,1.27,4.12s12.38-.32,18.09-1.27,15.24-6,15.24-6,1-4.44,0-6-2.22-3.17-2.54-4.76a22.89,22.89,0,0,1-.32-9.84c.95-4.44,10.79-71,14.6-87.87s4.76-71.09,4.44-80.93a126.12,126.12,0,0,0-1.58-16.82l.63-11.43s-17.77-7.61-33-8.57-33.65,1.91-33.65,1.91Z" transform="translate(-9.71 -48.97)"/><polyline class="cls-16" points="176.6 363.42 188.34 382.46 193.42 397.38"/><path class="cls-16" d="M208.06,411.88c2.22-2,4.41-4.08,5.22-4.89,1.59-1.59,3.81-23.48,4.12-24.44" transform="translate(-9.71 -48.97)"/><path class="cls-16" d="M184.72,385.41s0,16.5,1.9,20,14.28,11.11,16.19,10.48" transform="translate(-9.71 -48.97)"/><path class="cls-5" d="M188.21,378.11s17.13-2.85,28.24.95" transform="translate(-9.71 -48.97)"/><path class="cls-16" d="M230.61,462.43c.42,9.31.8,22.42-.19,25.81-1.59,5.39-2.54,6.34-3.49,8.88s.31,5.4-.32,7-2.54,29.49-4.13,36.79-1.9,23.16-1.9,23.16" transform="translate(-9.71 -48.97)"/><path class="cls-16" d="M236.13,368.27s-2.22,27.93-3.17,36.82-4.13,22.53-3.81,28.24.95,19.36.95,19.36.08,1.23.19,3.23" transform="translate(-9.71 -48.97)"/><path class="cls-5" d="M221.21,568.18v7.3a2.56,2.56,0,0,1,1.91,3.17,10,10,0,0,1-2.86,4.45" transform="translate(-9.71 -48.97)"/><path class="cls-14" d="M173.53,234s-10.39,11.35-13.05,24.4S166.76,289,166.76,289l15,55.32s-4.35,3.38-4.59,6.28,1,9.66,3.14,10.39,36,.48,36,.48,33.58,6,34.3,6,4.59-3.38,4.59-7.25-.72-9.42-1-11.83-9.91-65.95-10.87-70.29S242,256.64,242,256.64l20.24-15,3.46-4.44-15.47-25s-24.79,6.06-26,7S173.53,234,173.53,234Z" transform="translate(-9.71 -48.97)"/><path class="cls-14" d="M244.54,215.16s16.35,29.71,17.34,29.59,10.07-6.81,10.72-8.19-.43-4.43-.43-4.43-17-22.26-18.55-23.66a2.59,2.59,0,0,0-3.9,0C249.13,209.39,243.44,210.16,244.54,215.16Z" transform="translate(-9.71 -48.97)"/><line class="cls-5" x1="232.32" y1="207.67" x2="200.51" y2="231.42"/><path class="cls-5" d="M204.8,316.08a71.74,71.74,0,0,1-5.08,7.78" transform="translate(-9.71 -48.97)"/><path class="cls-5" d="M221.17,277.65s-3.88,14.72-14.23,34.53" transform="translate(-9.71 -48.97)"/><path class="cls-5" d="M209.64,317.25s-11.75,17.62-17.26,22.4" transform="translate(-9.71 -48.97)"/></g></svg>