<svg width="28" height="16" viewBox="0 0 28 16" fill="none" xmlns="http://www.w3.org/2000/svg">
<path d="M0.0805196 2.10812C0.0143791 1.905 -0.0114274 1.69029 0.00463017 1.47672C0.0206877 1.26315 0.0782825 1.05507 0.173999 0.864821C0.269716 0.67457 0.401607 0.506018 0.56185 0.369161C0.722094 0.232303 0.907429 0.129925 1.10687 0.0680986C1.3063 0.00627185 1.51578 -0.0137453 1.72288 0.00923316C1.92998 0.0322116 2.13049 0.0977178 2.31251 0.201869C2.49454 0.30602 2.65437 0.446695 2.78254 0.615553C2.9107 0.78441 3.0046 0.978012 3.05865 1.18488C6.3044 12.3629 21.7023 12.3645 24.9511 1.19128C25.0094 0.989774 25.1056 0.802033 25.2344 0.638781C25.3632 0.475528 25.522 0.33996 25.7018 0.239817C25.8815 0.139675 26.0787 0.0769184 26.282 0.0551312C26.4853 0.0333439 26.6908 0.0529525 26.8868 0.112838C27.0827 0.172723 27.2653 0.271713 27.424 0.404154C27.5828 0.536594 27.7146 0.699892 27.812 0.884726C27.9094 1.06956 27.9704 1.27231 27.9916 1.48139C28.0128 1.69048 27.9937 1.90181 27.9355 2.10332C27.3694 4.1053 26.4092 5.96627 25.1145 7.57074L27.0984 9.61242C27.3818 9.9142 27.5387 10.3184 27.5351 10.7379C27.5316 11.1574 27.3679 11.5588 27.0794 11.8554C26.7909 12.1521 26.4007 12.3204 25.9927 12.324C25.5847 12.3277 25.1917 12.1664 24.8982 11.8749L22.8584 9.77723C21.7574 10.6309 20.5414 11.3149 19.2485 11.8077L19.804 13.9438C19.8633 14.1487 19.882 14.3637 19.8591 14.5762C19.8362 14.7886 19.7721 14.9942 19.6707 15.1808C19.5693 15.3674 19.4325 15.5311 19.2685 15.6625C19.1044 15.7938 18.9165 15.89 18.7157 15.9454C18.515 16.0007 18.3054 16.0142 18.0995 15.9849C17.8936 15.9557 17.6955 15.8843 17.5169 15.7749C17.3382 15.6656 17.1827 15.5206 17.0595 15.3485C16.9363 15.1763 16.8478 14.9805 16.7994 14.7726L16.233 12.6013C14.7595 12.8254 13.2534 12.8254 11.7799 12.6013L11.2135 14.7726C11.1651 14.9805 11.0766 15.1763 10.9534 15.3485C10.8302 15.5206 10.6747 15.6656 10.496 15.7749C10.3174 15.8843 10.1193 15.9557 9.91338 15.9849C9.70747 16.0142 9.49794 16.0007 9.29717 15.9454C9.0964 15.89 8.90846 15.7938 8.74444 15.6625C8.58042 15.5311 8.44365 15.3674 8.34221 15.1808C8.24077 14.9942 8.17671 14.7886 8.15381 14.5762C8.13092 14.3637 8.14965 14.1487 8.20891 13.9438L8.76439 11.8077C7.47146 11.3144 6.25538 10.6298 5.15454 9.77563L3.11622 11.8749C2.82446 12.1754 2.42859 12.3443 2.01569 12.3446C1.60279 12.3449 1.20669 12.1765 0.91452 11.8765C0.62235 11.5765 0.458047 11.1694 0.457755 10.7448C0.457463 10.3202 0.621207 9.91287 0.912964 9.61242L2.89683 7.57234C1.67695 6.07468 0.702908 4.25381 0.0774079 2.10972L0.0805196 2.10812Z" fill="#222222"/>
</svg>
