<svg width="33" height="21" viewBox="0 0 33 21" fill="none" xmlns="http://www.w3.org/2000/svg">
<path d="M16.5 4.375C15.8928 4.38406 15.2901 4.47614 14.7102 4.64844C14.9784 5.09869 15.1212 5.60706 15.125 6.125C15.125 6.52717 15.042 6.92541 14.8808 7.29697C14.7195 7.66853 14.4832 8.00613 14.1853 8.29051C13.8874 8.57489 13.5337 8.80048 13.1444 8.95438C12.7552 9.10829 12.338 9.1875 11.9167 9.1875C11.3741 9.18391 10.8415 9.04759 10.3698 8.79156C9.99763 10.0236 10.041 11.3361 10.4938 12.5433C10.9465 13.7504 11.7857 14.791 12.8924 15.5176C13.9992 16.2442 15.3174 16.62 16.6603 16.5918C18.0032 16.5635 19.3028 16.1327 20.3749 15.3602C21.4471 14.5878 22.2374 13.513 22.634 12.2879C23.0306 11.0629 23.0134 9.74983 22.5848 8.53468C22.1562 7.31952 21.3378 6.2639 20.2458 5.51734C19.1537 4.77078 17.8432 4.37113 16.5 4.375ZM32.8007 9.70156C29.6937 3.91508 23.5429 0 16.5 0C9.45712 0 3.30456 3.91781 0.199344 9.70211C0.0682845 9.94958 0 10.223 0 10.5003C0 10.7776 0.0682845 11.051 0.199344 11.2984C3.30628 17.0849 9.45712 21 16.5 21C23.5429 21 29.6954 17.0822 32.8007 11.2979C32.9317 11.0504 33 10.777 33 10.4997C33 10.2224 32.9317 9.94903 32.8007 9.70156ZM16.5 18.375C10.8482 18.375 5.6667 15.3672 2.86857 10.5C5.6667 5.63281 10.8476 2.625 16.5 2.625C22.1524 2.625 27.3333 5.63281 30.1314 10.5C27.3339 15.3672 22.1524 18.375 16.5 18.375Z" fill="#222222"/>
</svg>
