<svg width="27" height="27" viewBox="0 0 25 25" fill="none" xmlns="http://www.w3.org/2000/svg">
<path fill-rule="evenodd" clip-rule="evenodd" d="M12.5 0C5.59375 0 1.82443e-06 5.59375 1.82443e-06 12.5C-0.00141595 15.1241 0.823519 17.682 2.35777 19.8108C3.89202 21.9397 6.05768 23.5313 8.5475 24.36C9.1725 24.4687 9.40625 24.0937 9.40625 23.765C9.40625 23.4687 9.39 22.485 9.39 21.4375C6.25 22.0162 5.4375 20.6725 5.1875 19.9687C5.04625 19.6087 4.4375 18.5 3.90625 18.2025C3.46875 17.9687 2.84375 17.39 3.89 17.375C4.875 17.3587 5.5775 18.2812 5.8125 18.6562C6.9375 20.5462 8.735 20.015 9.4525 19.6875C9.5625 18.875 9.89 18.3287 10.25 18.0162C7.46875 17.7037 4.5625 16.625 4.5625 11.8437C4.5625 10.4837 5.04625 9.36 5.84375 8.48375C5.71875 8.17125 5.28125 6.89 5.96875 5.17125C5.96875 5.17125 7.015 4.84375 9.40625 6.45375C10.4238 6.17133 11.4752 6.02918 12.5313 6.03125C13.5938 6.03125 14.6563 6.17125 15.6563 6.4525C18.0463 4.8275 19.0938 5.1725 19.0938 5.1725C19.7813 6.89125 19.3438 8.1725 19.2188 8.485C20.015 9.36 20.5 10.4687 20.5 11.8437C20.5 16.6412 17.5788 17.7037 14.7975 18.0162C15.25 18.4062 15.6413 19.1562 15.6413 20.3287C15.6413 22 15.625 23.3437 15.625 23.7662C15.625 24.0937 15.86 24.4837 16.485 24.3587C18.9663 23.521 21.1224 21.9262 22.6499 19.7989C24.1774 17.6716 24.9993 15.1189 25 12.5C25 5.59375 19.4063 0 12.5 0Z" fill="white"/>
</svg>
