<svg width="208" height="208" viewBox="0 0 208 208" fill="none" xmlns="http://www.w3.org/2000/svg">
<path d="M104 0C83.4308 0 63.3235 6.09949 46.2207 17.5272C29.118 28.9548 15.7881 45.1974 7.91658 64.2009C0.0450616 83.2044 -2.01449 104.115 1.99838 124.289C6.01124 144.463 15.9163 162.994 30.4609 177.539C45.0056 192.084 63.5366 201.989 83.7107 206.002C103.885 210.015 124.796 207.955 143.799 200.083C162.803 192.212 179.045 178.882 190.473 161.779C201.901 144.677 208 124.569 208 104C208 76.4175 197.043 49.9647 177.539 30.4609C158.035 10.9571 131.583 0 104 0ZM104 184C91.0328 183.999 78.2602 180.845 66.7823 174.811C55.3045 168.777 45.4654 160.043 38.1126 149.362C30.7598 138.681 26.1136 126.373 24.5742 113.497C23.0347 100.622 24.6482 87.5649 29.2757 75.4514C33.9032 63.3379 41.4059 52.5308 51.1377 43.961C60.8695 35.3911 72.5386 29.3153 85.1401 26.2569C97.7415 23.1985 110.898 23.2492 123.475 26.4046C136.053 29.5599 147.675 35.7254 157.34 44.37C158.882 45.7951 159.802 47.7693 159.901 49.8667C160.001 51.964 159.271 54.0164 157.871 55.5808C156.471 57.1453 154.511 58.0965 152.416 58.2292C150.32 58.3619 148.257 57.6654 146.67 56.29C136.004 46.7501 122.449 41.0598 108.17 40.1282C93.8903 39.1966 79.7107 43.0773 67.8958 51.1505C56.0809 59.2236 47.3124 71.0235 42.991 84.6651C38.6697 98.3067 39.0447 113.003 44.0563 126.407C49.0678 139.81 58.4267 151.147 70.638 158.607C82.8493 166.067 97.2085 169.22 111.422 167.561C125.635 165.902 138.882 159.528 149.048 149.456C159.213 139.385 165.71 126.197 167.5 112H104C101.878 112 99.8435 111.157 98.3432 109.657C96.8429 108.157 96 106.122 96 104C96 101.878 96.8429 99.8434 98.3432 98.3431C99.8435 96.8429 101.878 96 104 96H176C178.122 96 180.157 96.8429 181.657 98.3431C183.157 99.8434 184 101.878 184 104C183.976 125.21 175.54 145.544 160.542 160.542C145.545 175.54 125.21 183.976 104 184Z" fill="black"/>
</svg>
