<svg width="24" height="25" viewBox="0 0 24 25" fill="none" xmlns="http://www.w3.org/2000/svg">
<path d="M12.52 0.200054C12.3751 0.0709469 12.1907 0 12 0C11.8093 0 11.6249 0.0709469 11.48 0.200054L0 10.45V22.5C0 23.163 0.252856 23.7989 0.702944 24.2678C1.15303 24.7366 1.76348 25 2.4 25H8.8C9.01217 25 9.21566 24.9122 9.36569 24.7559C9.51571 24.5996 9.6 24.3877 9.6 24.1667V19.1667C9.6 18.5036 9.85286 17.8678 10.3029 17.3989C10.753 16.9301 11.3635 16.6667 12 16.6667C12.6365 16.6667 13.247 16.9301 13.6971 17.3989C14.1471 17.8678 14.4 18.5036 14.4 19.1667V24.1667C14.4 24.3877 14.4843 24.5996 14.6343 24.7559C14.7843 24.9122 14.9878 25 15.2 25H21.6C22.2365 25 22.847 24.7366 23.2971 24.2678C23.7471 23.7989 24 23.163 24 22.5V10.45L12.52 0.200054Z" fill="#EFEFEF"/>
</svg>
