<svg xmlns="http://www.w3.org/2000/svg" xmlns:xlink="http://www.w3.org/1999/xlink" viewBox="0 0 659.17 634.02"><defs><style>.cls-1,.cls-26,.cls-6{fill:#fff;}.cls-1,.cls-17,.cls-19,.cls-2,.cls-3{stroke:#263238;}.cls-1,.cls-19,.cls-2,.cls-20,.cls-3,.cls-7{stroke-linecap:round;stroke-linejoin:round;}.cls-12,.cls-2{fill:#263238;}.cls-10,.cls-17,.cls-20,.cls-3,.cls-7{fill:none;}.cls-4{fill:#92e3a9;}.cls-16,.cls-5{fill:#d2ccf0;}.cls-7{stroke:#fff;}.cls-14,.cls-8{fill:#6b57d5;}.cls-9{fill:#0a0a1e;}.cls-10,.cls-14{stroke:#5547ae;}.cls-10,.cls-14,.cls-16,.cls-17{stroke-miterlimit:10;}.cls-11{clip-path:url(#clip-path);}.cls-13{clip-path:url(#clip-path-2);}.cls-15{clip-path:url(#clip-path-3);}.cls-16{stroke:#928cd3;}.cls-18{clip-path:url(#clip-path-4);}.cls-19,.cls-29{fill:#bfbfbf;}.cls-20{stroke:#7f7f7f;}.cls-21{clip-path:url(#clip-path-5);}.cls-22{clip-path:url(#clip-path-6);}.cls-23,.cls-26{opacity:0.2;}.cls-24{clip-path:url(#clip-path-7);}.cls-25{clip-path:url(#clip-path-8);}.cls-27{clip-path:url(#clip-path-9);}.cls-28{clip-path:url(#clip-path-10);}.cls-30{clip-path:url(#clip-path-11);}.cls-31{clip-path:url(#clip-path-12);}.cls-32{clip-path:url(#clip-path-13);}</style><clipPath id="clip-path" transform="translate(-14.47 -29.82)"><path class="cls-1" d="M609.37,355.66a39.64,39.64,0,0,0,10.69-1.46l-2.22-13L599,342.28l-.72,11.82A39.87,39.87,0,0,0,609.37,355.66Z"/></clipPath><clipPath id="clip-path-2" transform="translate(-14.47 -29.82)"><path class="cls-1" d="M235.56,148.25a44.31,44.31,0,0,0,11.88-1.62L245,132.14l-20.89,1.24-.8,13.13A44.06,44.06,0,0,0,235.56,148.25Z"/></clipPath><clipPath id="clip-path-3" transform="translate(-14.47 -29.82)"><path class="cls-1" d="M238,574.66A44.31,44.31,0,0,0,249.86,573l-2.47-14.48-20.89,1.24-.8,13.13A44.38,44.38,0,0,0,238,574.66Z"/></clipPath><clipPath id="clip-path-4" transform="translate(-14.47 -29.82)"><path class="cls-2" d="M573,240.41a1.23,1.23,0,0,1,1-.64,11.75,11.75,0,0,0,9-5.2,1.25,1.25,0,0,1,1.63-.39,15.71,15.71,0,0,1,5.43,5.35,3.54,3.54,0,0,1-1,4.8l-18.62,12.52a6.09,6.09,0,0,1-3.36,1h-4.57A1.63,1.63,0,0,1,561,255.7a3.5,3.5,0,0,1,2.47-2.31C566.51,252.64,572.35,241.6,573,240.41Z"/></clipPath><clipPath id="clip-path-5" transform="translate(-14.47 -29.82)"><path class="cls-2" d="M565.35,244.08a1.24,1.24,0,0,0-1.18-.24c-2.53.86-11.82,3.85-17.19,3.6-3.91-.18-5.13,2-5.49,3.73a1.74,1.74,0,0,0,1.44,2.08l30.18,4.58a3.53,3.53,0,0,0,4-2.8,15.77,15.77,0,0,0-.23-7.65,1.24,1.24,0,0,0-1.44-.82A11.74,11.74,0,0,1,565.35,244.08Z"/></clipPath><clipPath id="clip-path-6" transform="translate(-14.47 -29.82)"><path class="cls-1" d="M577.84,116.93s-5,3-3.55,3.72c2.42,1.18,7.69-2.54,7.69-2.54s5.75-.38,2.83-1.7l-2.92-1.32Z"/></clipPath><clipPath id="clip-path-7" transform="translate(-14.47 -29.82)"><path class="cls-1" d="M584.31,71.69S587.21,85,590.88,85s11.25-20,11.25-20l-5-3.46Z"/></clipPath><clipPath id="clip-path-8" transform="translate(-14.47 -29.82)"><path class="cls-2" d="M554.69,86.38h-5.85l8,37.85h5.84a2.46,2.46,0,0,0,2.46-3.12l-6.72-31.62A4.06,4.06,0,0,0,554.69,86.38Z"/></clipPath><clipPath id="clip-path-9" transform="translate(-14.47 -29.82)"><path class="cls-2" d="M565.19,121.11h30.7a0,0,0,0,1,0,0v1.94a1.18,1.18,0,0,1-1.18,1.18H566.36a1.18,1.18,0,0,1-1.18-1.18v-1.94A0,0,0,0,1,565.19,121.11Z"/></clipPath><clipPath id="clip-path-10" transform="translate(-14.47 -29.82)"><path class="cls-2" d="M560.47,124.23H513a4.06,4.06,0,0,1-3.78-3.12l-6.72-31.62A2.44,2.44,0,0,1,505,86.38h47.45a4.06,4.06,0,0,1,3.78,3.11l6.72,31.62A2.45,2.45,0,0,1,560.47,124.23Z"/></clipPath><clipPath id="clip-path-11" transform="translate(-14.47 -29.82)"><path class="cls-1" d="M517.94,376.5s-13.49,7.41-23.31-2.09c0,0,2.48-4.66,3.33-16.27l14.32-2.56a42.24,42.24,0,0,0,.44,11.84C513.63,371.84,516.21,375.93,517.94,376.5Z"/></clipPath><clipPath id="clip-path-12" transform="translate(-14.47 -29.82)"><polyline class="cls-3" points="101.9 417.02 101.9 394.23 90.47 394.23 90.47 418.47"/></clipPath><clipPath id="clip-path-13" transform="translate(-14.47 -29.82)"><path class="cls-1" d="M96.21,254.73s-3.18,4.4-3,8.12l-15-5.16s6.26-9.1,7.75-18S96.21,254.73,96.21,254.73Z"/></clipPath></defs><g id="Background_Simple" data-name="Background Simple"><path class="cls-4" d="M671,272.53c15.8,166.18-38.77,216.16-202.1,281.89s-279.48,160-389.36-43.87C.39,363.6,99.14,176.88,262.46,111.15S650.91,60.8,671,272.53Z" transform="translate(-14.47 -29.82)"/><path class="cls-5" d="M671,272.53c15.8,166.18-38.77,216.16-202.1,281.89s-279.48,160-389.36-43.87C.39,363.6,99.14,176.88,262.46,111.15S650.91,60.8,671,272.53Z" transform="translate(-14.47 -29.82)"/></g><g id="Dots"><path class="cls-6" d="M368.41,554.84a10.05,10.05,0,1,1-10.05-10.05A10.05,10.05,0,0,1,368.41,554.84Z" transform="translate(-14.47 -29.82)"/><path class="cls-6" d="M559.82,373.92a10,10,0,1,1-10.05-10.05A10.05,10.05,0,0,1,559.82,373.92Z" transform="translate(-14.47 -29.82)"/><path class="cls-6" d="M654,260.59a10,10,0,1,1-10.05-10A10.05,10.05,0,0,1,654,260.59Z" transform="translate(-14.47 -29.82)"/><path class="cls-6" d="M544.76,271a10,10,0,1,1-10-10.05A10.05,10.05,0,0,1,544.76,271Z" transform="translate(-14.47 -29.82)"/><path class="cls-6" d="M459.92,134.8a10,10,0,1,1-10-10A10,10,0,0,1,459.92,134.8Z" transform="translate(-14.47 -29.82)"/><path class="cls-6" d="M392.1,81.57a10.05,10.05,0,1,1-10.05-10A10.05,10.05,0,0,1,392.1,81.57Z" transform="translate(-14.47 -29.82)"/><path class="cls-6" d="M204.64,213.6a10,10,0,1,1-10-10A10,10,0,0,1,204.64,213.6Z" transform="translate(-14.47 -29.82)"/><path class="cls-6" d="M187.63,344.69a10,10,0,1,1-10-10.05A10,10,0,0,1,187.63,344.69Z" transform="translate(-14.47 -29.82)"/><path class="cls-6" d="M208,423.13a10,10,0,1,1-10-10.05A10,10,0,0,1,208,423.13Z" transform="translate(-14.47 -29.82)"/><circle class="cls-6" cx="121.36" cy="489.3" r="10.05"/><polygon class="cls-7" points="183.5 393.31 121.36 489.3 343.89 525.02 535.31 344.1 520.24 241.22 629.47 230.77 435.41 104.99 180.13 183.78 163.12 314.87 183.5 393.31"/><line class="cls-7" x1="367.59" y1="51.76" x2="435.41" y2="104.99"/><line class="cls-7" x1="343.89" y1="525.02" x2="326.66" y2="419.14"/><line class="cls-7" x1="180.13" y1="183.79" x2="238.73" y2="236.79"/></g><g id="Shadow"><ellipse class="cls-8" cx="497.36" cy="621.8" rx="75.57" ry="12.22"/></g><g id="Globe"><circle class="cls-9" cx="362.69" cy="317.1" r="157.88" transform="translate(-132.46 319.52) rotate(-45)"/><circle class="cls-10" cx="362.69" cy="317.1" r="157.88" transform="translate(-132.46 319.52) rotate(-45)"/><path class="cls-8" d="M282.26,224c-1.83-1.38-10.57,1.6-10.59-1,0-1.73,5.88-6.56,7-8.72,1.63-3.2.78-7.66,2.3-10.66.83-1.64,3.09-5.46,4.95-7,8.88-7.5,22.42-15.63,33.7-16.2,4.06-.2,9.63,6.77,10.54,12.21.54,3.23,0,12.81-2.85,16.17-4.29,5.06-13.72,5.12-18.73,9.06-5.83,4.58-8.66,15.39-15.37,19-1.87,1-5.43-1-6.63-2C284.33,233,284.36,225.63,282.26,224Z" transform="translate(-14.47 -29.82)"/><path class="cls-8" d="M465.31,386.53a5.43,5.43,0,0,0-3.15.2c-2.61,1.51-6.42,7.19-7.77,10-1.54,3.2-3.4,10.13-3.25,13.12.09,1.68,1.05,5,2.44,5.18,1.05.13,3.82-1.94,4.8-3.11,5-6,11.09-15.44,10.64-22.93C469,387.86,466.45,386.81,465.31,386.53Z" transform="translate(-14.47 -29.82)"/><path class="cls-8" d="M369.58,242.07c1.9-.19,6.1-1.22,7.25-2.92,1.87-2.77,2.58-11.07.63-13.41-.82-1-3.89-.78-4.93.08-1.37,1.13-1,5.89-2.36,7.09s-5.19-.5-6.37.84-1.5,5.69-.58,7S367.93,242.23,369.58,242.07Z" transform="translate(-14.47 -29.82)"/><path class="cls-8" d="M463.77,195.83c-1.45,1.26-2.76,3.06-2.85,4.77-.07,1.29,2.54,5,2.21,6.14-.81,2.78-7.36,4.75-10.64,3-1-.54-1.89-3.6-2.86-4.28-4.06-2.83-11.81-.91-15.75-1.15-1.4-.09-4.28.09-5.62-.33-6.67-2-13.59-8.95-20.37-9.22-3.38-.13-11,4.71-13.38,8.27a32.3,32.3,0,0,0-5.27,17c0,2.5,2.28,7.84,4.27,9.18s7.53,1.61,9.36.05c1.27-1.09.54-5.72,1.57-7,1.16-1.49,5.26-3.88,6.5-2.71,3.78,3.53,4.68,13.36,2.41,17.64-2.44,4.6-12.58,9.35-17.84,6.9-1.93-.91-.33-8.16-2-9.9s-6.61-2.91-8.21-1.39c-2,1.85,1.38,9-.23,11.3-1.77,2.51-8.82,1.72-11.23,3.62-1.77,1.4-4.78,5.52-5,7.81-.19,2,4.12,5.33,3.07,7-1.51,2.41-9-2.07-10.84.12-2.47,2.93-.7,12.37,2.07,14.75,2.07,1.77,8.85,1.64,11.09-.08,1.59-1.23.62-6.6,2.24-7.78,2.13-1.55,7.76,1.3,10.28.67,2-.49,4.89-4.59,6.85-4.25,2.63.47,6.43,5.77,6.92,8.49.37,2-4.22,6.37-2.71,7.77,1.84,1.71,8.06-1.89,9-4.22,1.17-2.92-5.43-9.07-4.33-12,.41-1.09,2.92-2.36,4-2.09,3.8.91,6.12,11.68,10,12.76,2.72.77,7.45-4.78,10.19-4.12,3.24.77,8.46,6.68,9.46,9.93.71,2.26-.17,7.67-1.76,9.09-5.45,4.85-15.62,6-23.1,5.52-3.55-.22-10.79-3.14-13.4-5.67-1.81-1.76-2.2-8-4.22-9.19-5.28-3.06-13.69-2.57-19.49-.66-10.28,3.39-22.74,13.11-28.5,22.62-2.07,3.43,0,12.66-2.07,16.09-.65,1.07-3.6,1.67-4.17,2.77-1.75,3.38-1.28,12.09.6,15.35,3.5,6.11,11.09,12.09,17.35,14.24,7.17,2.46,17-1.51,24.63.22,2.4.55,7.58,3.35,8.9,5.67,1.74,3.05-.94,11.06.7,14.13,1.35,2.54,8.73,2.46,9.76,4.92,3.74,8.9-5.18,20.89-3.81,30.39.46,3.21,5.42,8.2,5.89,11.23.86,5.63-2.26,13.27-.07,18.32,1.43,3.33,9.89,4.65,13.06,3,6.84-3.58,14.35-12.22,17.55-19.1,2.93-6.29.43-16.11,3.61-21.6,2.58-4.44,10.85-6.56,13.6-11,4.07-6.62.93-18.77,4.76-25.66,3-5.39,11.74-8.53,14.62-14.19,1.13-2.23.56-8.94-1.06-10.26-4-3.23-13.32-1-17.12-4.55-1.65-1.56.77-8.56-.26-11.12-.95-2.38-6.06-5.19-6.91-7.63-.91-2.64-1.35-9.26.69-11.17.89-.83,3.91-.56,4.94,0,5.49,3.08,10.09,9.85,11.93,15.94.63,2.07-2.21,7.13-1,9,.85,1.36,4.6,2.24,6.2,2,7-1.1,19.1-6.36,20.24-11.84,1.41-6.73-16.9-14.35-14.95-21.85.62-2.39,9.94-2.3,12.64-.55,1.9,1.23,1.74,6.55,3.11,8.16,3.73,4.38,9.58,7.38,14.84,10.1,2.48,1.28,9.08,1.65,10.46,3.91,1.82,2.95-3.48,10.82-2.46,13.9a38.51,38.51,0,0,0,6.43,11.22,159.25,159.25,0,0,0,2.31-27A157.54,157.54,0,0,0,463.77,195.83Z" transform="translate(-14.47 -29.82)"/><path class="cls-8" d="M280.07,419.16c-5.91-5.6-12.74-14.47-13.38-21.54-.74-8.17,15.19-11.87,16.06-21,.31-3.29-7.62-11.94-7-15.39s9.5-7,9.11-10.7c-.8-7.62-8.9-16.22-15.26-20.33-3.43-2.21-13.35.55-16.33-2.33-1.41-1.37.86-5.83-.58-7.11-1.85-1.62-7.55.79-9.87-.14-2.7-1.08-5.53-6.82-8.09-7.68-8.68-2.9-21.36,4.26-29.88.85,0,1.11,0,2.21,0,3.32,0,.26,0,.52,0,.78a8.41,8.41,0,0,1,3.57,3.36c.69,1.86-.45,5.89-1.87,7.12a2.46,2.46,0,0,1-1.28.38q.49,6.75,1.54,13.35c4.36,2.76,10.08,4.6,12.92,8.39,1.74,2.32-2,7.66,0,9.93,3.92,4.45,12.77,4.82,17.12,8.76,10.15,9.22,11.84,27.84,23.27,38.35,2,1.83,6.79,3.61,8.74,5.51,2.75,2.68,3.89,7.68,6.86,10.25,5.08,4.39,13.68,11.66,18.38,11.26.86-.07-2.39-7.33-5.11-10.21C287,422.19,282.21,421.18,280.07,419.16Z" transform="translate(-14.47 -29.82)"/><path class="cls-8" d="M210.67,288.73c.86.37,3.33.5,4.19-.17,2-1.57.25-6.71,1.91-8.5,7-7.57,21.24-7,27.85-15.19,1.85-2.29-1-8.22,1.52-10,7.89-5.44,20.43,6,27.35,1,4.07-2.94,7.71-13.13,5.81-17.74-.35-.85-4.77,1.21-5.67.56-1.8-1.29,1.2-9.28-.44-9.84-4.71-1.6-12.57,2.56-17.5,5.27-1.36.74-3.75,3.76-5.08,4.18-2.82.89-8.34-1-6.86-3.07,3.29-4.5,11.83-5.69,16.53-9.31,4.14-3.19,11.41-9.83,11.32-13.24-.12-4.63-19.84.59-24.76,3.07-2.9,1.47-9.19,7.52-12.17,9a157.08,157.08,0,0,0-26.49,59.84C208.87,286.25,209.46,288.21,210.67,288.73Z" transform="translate(-14.47 -29.82)"/></g><g id="Lines"><line class="cls-3" x1="248.82" y1="460.17" x2="268.38" y2="431.17"/><line class="cls-3" x1="154.61" y1="280.52" x2="185.22" y2="280.96"/><line class="cls-3" x1="245.53" y1="115.46" x2="264.41" y2="145.74"/><line class="cls-3" x1="550.35" y1="284.57" x2="512.1" y2="285.03"/><polyline class="cls-3" points="145.2 392.68 177.3 436.45 194.68 460.16"/><line class="cls-3" x1="200.31" y1="117.6" x2="125.44" y2="212.59"/><line class="cls-3" x1="454.15" y1="480.57" x2="271.08" y2="488.59"/><line class="cls-3" x1="530.29" y1="440.22" x2="588.55" y2="330.37"/><line class="cls-3" x1="593.09" y1="241.74" x2="591.16" y2="206.15"/><line class="cls-3" x1="464.07" y1="170.29" x2="482.56" y2="156.83"/><line class="cls-3" x1="270.78" y1="76.93" x2="481.8" y2="80.57"/></g><g id="Face_3" data-name="Face 3"><circle class="cls-4" cx="609.19" cy="315.49" r="39.91" transform="translate(50.62 703.51) rotate(-64.9)"/><circle class="cls-8" cx="609.19" cy="315.49" r="39.91" transform="translate(50.62 703.51) rotate(-64.9)"/><path class="cls-6" d="M609.37,355.66a39.64,39.64,0,0,0,10.69-1.46l-2.22-13L599,342.28l-.72,11.82A39.87,39.87,0,0,0,609.37,355.66Z" transform="translate(-14.47 -29.82)"/><g class="cls-11"><path class="cls-2" d="M595.35,341.4c3.42,5.69,8.44,9.3,14.06,9.3s10.64-3.61,14.06-9.3Z" transform="translate(-14.47 -29.82)"/></g><path class="cls-3" d="M609.37,355.66a39.64,39.64,0,0,0,10.69-1.46l-2.22-13L599,342.28l-.72,11.82A39.87,39.87,0,0,0,609.37,355.66Z" transform="translate(-14.47 -29.82)"/><path class="cls-1" d="M631.67,320.23a3.57,3.57,0,0,0-2.52-.19c-.5-14.36-9.42-25.8-20.36-25.8s-19.86,11.44-20.36,25.8a3.58,3.58,0,0,0-2.52.19c-2.14,1-2.72,4.24-1.3,7.12,1.14,2.33,3.24,3.72,5.13,3.63,2.93,10.19,10.35,17.43,19,17.43s16.12-7.24,19.05-17.43c1.89.09,4-1.3,5.14-3.63C634.39,324.47,633.81,321.28,631.67,320.23Z" transform="translate(-14.47 -29.82)"/><path class="cls-3" d="M606,323.09l-.16.78a20.32,20.32,0,0,1-2.82,6.86h0l4.1,2.23" transform="translate(-14.47 -29.82)"/><path class="cls-3" d="M602.48,338.36a13.83,13.83,0,0,0,11,0" transform="translate(-14.47 -29.82)"/><path class="cls-12" d="M598.28,321.05c0,1.08-.42,1.95-.93,1.95s-.94-.87-.94-1.95.42-2,.94-2S598.28,320,598.28,321.05Z" transform="translate(-14.47 -29.82)"/><path class="cls-12" d="M613.82,321.05c0,1.08-.41,1.95-.93,1.95s-.93-.87-.93-1.95.42-2,.93-2S613.82,320,613.82,321.05Z" transform="translate(-14.47 -29.82)"/><path class="cls-3" d="M595.53,317.26a6.61,6.61,0,0,1,7.63-3.31" transform="translate(-14.47 -29.82)"/><path class="cls-3" d="M619.64,317.26A6.63,6.63,0,0,0,612,314" transform="translate(-14.47 -29.82)"/><line class="cls-1" x1="578.21" y1="288" x2="574.07" y2="288"/><rect class="cls-3" x="579.07" y="288" width="11.49" height="7.4"/><rect class="cls-3" x="595.59" y="288" width="11.49" height="7.4"/><line class="cls-3" x1="590.56" y1="290.17" x2="595.59" y2="290.17"/><line class="cls-1" x1="613.98" y1="288" x2="607.08" y2="288"/><path class="cls-2" d="M589.86,320c1.47.14,5.75-9.45,4.09-15.83s14.3-1.53,24.25-2.68,3.45,14.09,9.07,17.7,4.34-22.17-1-22.93c0,0-4-7.66-19.57-7s-17.61,10.46-17.61,10.46S581.44,319.18,589.86,320Z" transform="translate(-14.47 -29.82)"/></g><g id="Face_2" data-name="Face 2"><circle class="cls-4" cx="221.65" cy="73.79" r="44.35"/><circle class="cls-8" cx="221.65" cy="73.79" r="44.35"/><path class="cls-6" d="M235.56,148.25a44.31,44.31,0,0,0,11.88-1.62L245,132.14l-20.89,1.24-.8,13.13A44.06,44.06,0,0,0,235.56,148.25Z" transform="translate(-14.47 -29.82)"/><g class="cls-13"><path class="cls-2" d="M220,134.1c3.8,6.33,9.38,10.34,15.62,10.34s11.82-4,15.62-10.34Z" transform="translate(-14.47 -29.82)"/></g><path class="cls-3" d="M235.56,148.25a44.31,44.31,0,0,0,11.88-1.62L245,132.14l-20.89,1.24-.8,13.13A44.06,44.06,0,0,0,235.56,148.25Z" transform="translate(-14.47 -29.82)"/><path class="cls-2" d="M256.31,84.93s20.15,41.28,7.66,49.78c-13.27,9-45.1,9.51-55.17-1.42s.08-36.59,4.36-42a44.14,44.14,0,0,1,11-9.22l13.83-3,14.09,5.11Z" transform="translate(-14.47 -29.82)"/><path class="cls-1" d="M261.1,108.88a3.91,3.91,0,0,0-2.8-.21c-.56-16-10.48-28.67-22.63-28.67s-22.06,12.71-22.62,28.67a3.9,3.9,0,0,0-2.8.21c-2.38,1.17-3,4.71-1.45,7.91,1.27,2.59,3.6,4.14,5.71,4,3.25,11.33,11.5,19.37,21.16,19.37s17.92-8,21.17-19.37c2.1.11,4.43-1.44,5.7-4C264.12,113.59,263.47,110.05,261.1,108.88Z" transform="translate(-14.47 -29.82)"/><polyline class="cls-3" points="218.1 82.24 214.79 90.72 219.35 93.21"/><path class="cls-3" d="M229.26,129a15.34,15.34,0,0,0,12.2,0" transform="translate(-14.47 -29.82)"/><path class="cls-3" d="M219.57,104.3a7.35,7.35,0,0,1,9.17-1.14" transform="translate(-14.47 -29.82)"/><path class="cls-3" d="M247.1,104.46A7.36,7.36,0,0,0,238,103" transform="translate(-14.47 -29.82)"/><path class="cls-2" d="M224.14,114.43h0a6.38,6.38,0,0,1-6.38-6.38V106.2h10.92a1.85,1.85,0,0,1,1.85,1.85h0A6.39,6.39,0,0,1,224.14,114.43Z" transform="translate(-14.47 -29.82)"/><path class="cls-2" d="M242.5,114.43h0a6.38,6.38,0,0,1-6.38-6.38h0A1.84,1.84,0,0,1,238,106.2h10.92v1.85A6.38,6.38,0,0,1,242.5,114.43Z" transform="translate(-14.47 -29.82)"/><line class="cls-3" x1="216.06" y1="78.8" x2="221.65" y2="78.8"/><line class="cls-1" x1="203.29" y1="76.38" x2="198.7" y2="76.38"/><line class="cls-1" x1="243.67" y1="76.38" x2="235.15" y2="76.38"/><path class="cls-2" d="M228.74,87.76s10.44,13.36,20.14,14.27,3.35,20.37,0,21c0,0,8.71.32,9.42-14.35,0,0,12.11-19.84-8.41-28.28C234.05,73.87,226.1,80,226.1,80S206,85,211.21,105.49c0,0,3.54,10.77,7.37,12.05,0,0-5.67-12.19-.14-18.71S228.26,92.58,228.74,87.76Z" transform="translate(-14.47 -29.82)"/><path class="cls-3" d="M306.87,73.16h7.22a11.06,11.06,0,1,0,0-22.12c-.21,0-.41,0-.62,0a13.09,13.09,0,0,0-25,0c-.21,0-.41,0-.61,0a11.06,11.06,0,0,0,0,22.12h3" transform="translate(-14.47 -29.82)"/><polygon class="cls-14" points="298.04 40.01 284.5 26.46 270.95 40.01 279.04 40.01 279.04 50.96 289.95 50.96 289.95 40.01 298.04 40.01"/></g><g id="Face_1" data-name="Face 1"><circle class="cls-4" cx="223.51" cy="500.49" r="44.35"/><circle class="cls-8" cx="223.51" cy="500.49" r="44.35"/><path class="cls-6" d="M238,574.66A44.31,44.31,0,0,0,249.86,573l-2.47-14.48-20.89,1.24-.8,13.13A44.38,44.38,0,0,0,238,574.66Z" transform="translate(-14.47 -29.82)"/><g class="cls-15"><path class="cls-2" d="M222.39,560.51c3.8,6.32,9.39,10.34,15.63,10.34s11.82-4,15.62-10.34Z" transform="translate(-14.47 -29.82)"/></g><path class="cls-3" d="M238,574.66A44.31,44.31,0,0,0,249.86,573l-2.47-14.48-20.89,1.24-.8,13.13A44.38,44.38,0,0,0,238,574.66Z" transform="translate(-14.47 -29.82)"/><path class="cls-1" d="M263.4,536.13a3.9,3.9,0,0,0-2.8-.21c-.56-16-10.47-28.68-22.62-28.68S215.91,520,215.35,535.92a3.91,3.91,0,0,0-2.8.21c-2.37,1.16-3,4.71-1.44,7.91,1.27,2.59,3.6,4.14,5.7,4,3.25,11.32,11.5,19.37,21.17,19.37s17.91-8.05,21.16-19.37c2.11.11,4.44-1.44,5.71-4C266.42,540.84,265.78,537.29,263.4,536.13Z" transform="translate(-14.47 -29.82)"/><polyline class="cls-3" points="223.04 509.49 226.35 517.97 221.8 520.45"/><path class="cls-3" d="M231.56,556.27a15.36,15.36,0,0,0,12.21,0" transform="translate(-14.47 -29.82)"/><path class="cls-12" d="M230.43,537.34c0,1.2-.47,2.18-1,2.18s-1-1-1-2.18.46-2.17,1-2.17S230.43,536.14,230.43,537.34Z" transform="translate(-14.47 -29.82)"/><path class="cls-12" d="M247.6,537.34c0,1.2-.47,2.18-1,2.18s-1-1-1-2.18.46-2.17,1-2.17S247.6,536.14,247.6,537.34Z" transform="translate(-14.47 -29.82)"/><path class="cls-3" d="M224,532.82a7.34,7.34,0,0,1,8.48-3.67" transform="translate(-14.47 -29.82)"/><path class="cls-3" d="M250.75,532.82a7.35,7.35,0,0,0-8.48-3.67" transform="translate(-14.47 -29.82)"/><path class="cls-2" d="M213.15,532.82s3.52,7.11,5.38,6.49-.83-13.77,3.73-17.13,20.27,1,26.79-4.59c0,0-.11,7.7,4.24,11.3S256,539.72,258,539.31s2.69-5.67,3.11-7.88c1.24-6.65,3.1-25.43-8.07-25.43,0,0-2.69-3.93-18.93-3.51s-16.65-4.14-16.65-4.14S205.09,515.58,213.15,532.82Z" transform="translate(-14.47 -29.82)"/></g><g id="Character_3" data-name="Character 3"><path class="cls-4" d="M532.35,217.68l78.77,9.79c18.56,2.31,35.25-11.1,36.35-29.21L654.2,87.6c1.1-18.09-13.81-33.3-32.49-33.15l-87.21.66c-18,.14-32.33,14.43-32,31.83l1.71,100.21C504.44,202.7,516.44,215.7,532.35,217.68Z" transform="translate(-14.47 -29.82)"/><path class="cls-16" d="M532.35,217.68l78.77,9.79c18.56,2.31,35.25-11.1,36.35-29.21L654.2,87.6c1.1-18.09-13.81-33.3-32.49-33.15l-87.21.66c-18,.14-32.33,14.43-32,31.83l1.71,100.21C504.44,202.7,516.44,215.7,532.35,217.68Z" transform="translate(-14.47 -29.82)"/><path class="cls-17" d="M641.92,176.6v5.67H560.44V176.6A10.53,10.53,0,0,1,571,166.07h60.43A10.52,10.52,0,0,1,641.92,176.6Z" transform="translate(-14.47 -29.82)"/><polyline class="cls-17" points="629.48 180.95 629.48 152.46 543.93 152.46 543.93 191.1"/><path class="cls-1" d="M544,114.8s3.36-9,11.79-7.53,2,8.48-2.07,9.11C553.75,116.38,553.14,113.92,544,114.8Z" transform="translate(-14.47 -29.82)"/><path class="cls-1" d="M538.44,119.88c-1.11,1.11-3.78,1.21-2-1.2a12.71,12.71,0,0,1,5.75-4.25c4-1.78,5.56-1.42,9.18-2.22s4.29.68,5.55,1.37c3,1.63,3.69,1.91,4.45,3.56s1.57,3.78-.76,3.78c-2.12,0-2.26-3.51-4.31-3.37s-3.08,3.37-4.52,3.37h-.55c-1.23,0-1.3-1-.54-2.64s1.57-3.06,1.57-3.06a6.3,6.3,0,0,0-2.78,2.91c-1,2.1-1.16,3-3,3s-1.68-1.35.12-4.32a6.9,6.9,0,0,0-2.51,2.57c-.89,1.68-1.35,1.56-2.52,1.56-1.52,0-1.42-2.51,1.29-4.16C542.9,116.76,542.3,116,538.44,119.88Z" transform="translate(-14.47 -29.82)"/><path class="cls-1" d="M549,113.87s-1.06-.05-1.73,1.74" transform="translate(-14.47 -29.82)"/><polygon class="cls-1" points="555.84 200.6 561.68 210.8 566.67 210.8 568.86 207.71 563.47 194.58 555.84 200.6"/><path class="cls-2" d="M584.15,142.11l-6,2.26s-42.93,12.43-44.81,23,37.82,65.53,37.82,65.53,4.79.7,8.5-5.65c0,0-14-42.18-20.37-50.46,0,0,47.11-8.29,49.37-14.31s-4-20.95-4-20.95Z" transform="translate(-14.47 -29.82)"/><path class="cls-12" d="M573,240.41a1.23,1.23,0,0,1,1-.64,11.75,11.75,0,0,0,9-5.2,1.25,1.25,0,0,1,1.63-.39,15.71,15.71,0,0,1,5.43,5.35,3.54,3.54,0,0,1-1,4.8l-18.62,12.52a6.09,6.09,0,0,1-3.36,1h-4.57A1.63,1.63,0,0,1,561,255.7a3.5,3.5,0,0,1,2.47-2.31C566.51,252.64,572.35,241.6,573,240.41Z" transform="translate(-14.47 -29.82)"/><g class="cls-18"><path class="cls-19" d="M573,240.41a1.23,1.23,0,0,1,1-.64,11.75,11.75,0,0,0,9-5.2,1.25,1.25,0,0,1,1.63-.39,15.71,15.71,0,0,1,5.43,5.35,3.54,3.54,0,0,1-1,4.8l-18.62,12.52a6.09,6.09,0,0,1-3.36,1h-4.57A1.63,1.63,0,0,1,561,255.7a3.5,3.5,0,0,1,2.47-2.31C566.51,252.64,572.35,241.6,573,240.41Z" transform="translate(-14.47 -29.82)"/></g><path class="cls-3" d="M573,240.41a1.23,1.23,0,0,1,1-.64,11.75,11.75,0,0,0,9-5.2,1.25,1.25,0,0,1,1.63-.39,15.71,15.71,0,0,1,5.43,5.35,3.54,3.54,0,0,1-1,4.8l-18.62,12.52a6.09,6.09,0,0,1-3.36,1h-4.57A1.63,1.63,0,0,1,561,255.7a3.5,3.5,0,0,1,2.47-2.31C566.51,252.64,572.35,241.6,573,240.41Z" transform="translate(-14.47 -29.82)"/><path class="cls-20" d="M550.07,171.67s2.67.19,7.17,3.58" transform="translate(-14.47 -29.82)"/><polygon class="cls-1" points="553.3 203.07 551.33 217.93 560.15 219.43 564.69 204.84 553.3 203.07"/><path class="cls-2" d="M598.27,146.08c.54,2-.4,8.71-2.27,9.7-7.36,3.86-19.35,14.14-22,25.12-3.39,13.93-7.15,56.49-7.15,56.49s3,4.89,10.92,2.63c0,0,14.68-35.39,15.81-52.72,0,0,12.29-8.29,24.12-12.75,7.12-2.68,11-7.15,12.41-11,3.77-10.17-3.76-26.74-3.76-26.74l-27.87,5.65Z" transform="translate(-14.47 -29.82)"/><path class="cls-20" d="M586.71,182.78s3.46.38,5.16,2.45" transform="translate(-14.47 -29.82)"/><path class="cls-12" d="M565.35,244.08a1.24,1.24,0,0,0-1.18-.24c-2.53.86-11.82,3.85-17.19,3.6-3.91-.18-5.13,2-5.49,3.73a1.74,1.74,0,0,0,1.44,2.08l30.18,4.58a3.53,3.53,0,0,0,4-2.8,15.77,15.77,0,0,0-.23-7.65,1.24,1.24,0,0,0-1.44-.82A11.74,11.74,0,0,1,565.35,244.08Z" transform="translate(-14.47 -29.82)"/><g class="cls-21"><path class="cls-19" d="M565.35,244.08a1.24,1.24,0,0,0-1.18-.24c-2.53.86-11.82,3.85-17.19,3.6-3.91-.18-5.13,2-5.49,3.73a1.74,1.74,0,0,0,1.44,2.08l30.18,4.58a3.53,3.53,0,0,0,4-2.8,15.77,15.77,0,0,0-.23-7.65,1.24,1.24,0,0,0-1.44-.82A11.74,11.74,0,0,1,565.35,244.08Z" transform="translate(-14.47 -29.82)"/></g><path class="cls-3" d="M565.35,244.08a1.24,1.24,0,0,0-1.18-.24c-2.53.86-11.82,3.85-17.19,3.6-3.91-.18-5.13,2-5.49,3.73a1.74,1.74,0,0,0,1.44,2.08l30.18,4.58a3.53,3.53,0,0,0,4-2.8,15.77,15.77,0,0,0-.23-7.65,1.24,1.24,0,0,0-1.44-.82A11.74,11.74,0,0,1,565.35,244.08Z" transform="translate(-14.47 -29.82)"/><path class="cls-20" d="M579.66,170.47a36.28,36.28,0,0,1,21.72-14.84" transform="translate(-14.47 -29.82)"/><path class="cls-14" d="M630.47,142.87c-23,6.4-52.35,1.51-52.35,1.51a45.2,45.2,0,0,0-.34-12.81h27a7.36,7.36,0,0,0,7.36-7.33H576.43c-1-4.42-2.28-9.37-4-14.9a84.78,84.78,0,0,1-2.88-15.85L560.4,110.1s-1.16,4-7,4.15-5.21-2-.12-18.61c3.6-11.75,10.84-21.45,14.77-26.11a1.87,1.87,0,0,1,1-.64,1.53,1.53,0,0,0,0-.21C606.74,58.89,622.94,71,622.94,71,612.4,101.63,630.47,142.87,630.47,142.87Z" transform="translate(-14.47 -29.82)"/><path class="cls-6" d="M577.84,116.93s-5,3-3.55,3.72c2.42,1.18,7.69-2.54,7.69-2.54s5.75-.38,2.83-1.7l-2.92-1.32Z" transform="translate(-14.47 -29.82)"/><g class="cls-22"><path class="cls-23" d="M577.84,116.93s-5,3-3.55,3.72c2.42,1.18,7.69-2.54,7.69-2.54s5.75-.38,2.83-1.7l-2.92-1.32Z" transform="translate(-14.47 -29.82)"/></g><path class="cls-3" d="M577.84,116.93s-5,3-3.55,3.72c2.42,1.18,7.69-2.54,7.69-2.54s5.75-.38,2.83-1.7l-2.92-1.32Z" transform="translate(-14.47 -29.82)"/><path class="cls-6" d="M584.31,71.69S587.21,85,590.88,85s11.25-20,11.25-20l-5-3.46Z" transform="translate(-14.47 -29.82)"/><g class="cls-24"><path class="cls-2" d="M576.25,60.35a21.36,21.36,0,0,0,1.6,4.8c2.5,4.76,6,12.48,10.71,11.27,4.15-1.07,10.3-7.25,11-11a47,47,0,0,0,.66-6.4Z" transform="translate(-14.47 -29.82)"/></g><path class="cls-3" d="M584.31,71.69S587.21,85,590.88,85s11.25-20,11.25-20l-5-3.46Z" transform="translate(-14.47 -29.82)"/><path class="cls-2" d="M577.46,32.72s-10.45,2.86-8.59,19.2c1.92,17,4.34,10.38,3.29,13.88s15.44,3.77,15.44,3.77,14.44-1.78,18.81,1.37,6.92-4.33,5.23-9.41-7.76-14.43-9.51-22C599.64,28.62,584,28.9,577.46,32.72Z" transform="translate(-14.47 -29.82)"/><path class="cls-1" d="M574.29,46.46s.07,12,2.42,16.95,5.63,12.8,10.64,11.86c4.45-.83,11.32-6.66,12.25-10.39a41.94,41.94,0,0,0,1.12-6.74c.54-.24,2.23,1.06,3-3.2.28-1.55,1.77-6.12-1.6-6.78-3.62-.71-3.59,4.52-3.59,4.52l-5.35-13.56-12.34-2.07-4.14,1.88Z" transform="translate(-14.47 -29.82)"/><path class="cls-3" d="M582.09,58.2a23.89,23.89,0,0,1-1,4.57,1,1,0,0,0,.65,1.21l2.52.74" transform="translate(-14.47 -29.82)"/><path class="cls-3" d="M586.22,67.27s4.66-.14,6.57-2.75" transform="translate(-14.47 -29.82)"/><path class="cls-3" d="M576.52,54.45a2,2,0,0,1,2.64-1" transform="translate(-14.47 -29.82)"/><path class="cls-3" d="M584.67,52.62s2.33-1.67,5.43.65" transform="translate(-14.47 -29.82)"/><path class="cls-12" d="M579.05,58.11c.1.66-.09,1.23-.42,1.28s-.67-.45-.77-1.11.09-1.22.42-1.27S579,57.46,579.05,58.11Z" transform="translate(-14.47 -29.82)"/><path class="cls-12" d="M587.43,57.62c.1.65-.09,1.22-.42,1.27s-.67-.44-.76-1.1.09-1.23.42-1.27S587.34,57,587.43,57.62Z" transform="translate(-14.47 -29.82)"/><path class="cls-2" d="M573.51,39.12s-4,10.64,1.88,10.35,11-4.08,16.86-.94-1-5.83-1-5.83,6,6.4,5.84,10.82,2.17-2.73,1.79-5.08-4.33-13.93-4.33-13.93l-6.4-1.42-11,1.13Z" transform="translate(-14.47 -29.82)"/><path class="cls-2" d="M600,63.18c-.39,1.7-6.57,7.81-2.47,9.08s13-.05,14.33-4.54S609,60.79,609,60.79,600.5,60.91,600,63.18Z" transform="translate(-14.47 -29.82)"/><path class="cls-1" d="M600.91,112.83l-13.56.66s-11.39-2.78-15.25-2.55a26.77,26.77,0,0,0-8.66,2.55,8.22,8.22,0,0,0-2.73,3.57,6.71,6.71,0,0,0,0,2.13,1.47,1.47,0,0,0,1.36,1.47c2.59.19,6.91.42,7.93-.87,0,0-.85,1,.67,1s3.62-2.43,3.62-2.43l4.59-.19s2,2.46,7.9,2.62a13.44,13.44,0,0,0,2.83-.75l11,1.44,1.51-1.89V113.2Z" transform="translate(-14.47 -29.82)"/><path class="cls-3" d="M562.78,119.61s1.27-4.55,2.73-5.46a38.67,38.67,0,0,1,4-1.69" transform="translate(-14.47 -29.82)"/><path class="cls-3" d="M565.93,119.61a10.52,10.52,0,0,1,.94-3.1,11.47,11.47,0,0,1,4.35-3,16,16,0,0,1,3.07,0" transform="translate(-14.47 -29.82)"/><path class="cls-3" d="M570.3,118.77s.41-2,.92-2.36a9.45,9.45,0,0,1,3.07-1.13,18.87,18.87,0,0,1,2.42,0" transform="translate(-14.47 -29.82)"/><path class="cls-14" d="M598.54,121.68s26.09,3.39,31.74,3.68S634.52,98,634,86.1s-12.16-15.88-12.16-15.88c-8.19,17,1.15,39.32,1.15,39.32l-23.16,2.82S601.54,118.29,598.54,121.68Z" transform="translate(-14.47 -29.82)"/><path class="cls-3" d="M611.89,81.29a27.59,27.59,0,0,0,6.18,15.86" transform="translate(-14.47 -29.82)"/><path class="cls-3" d="M571.84,78.49a90.56,90.56,0,0,0-1.77,16.42" transform="translate(-14.47 -29.82)"/><path class="cls-12" d="M554.69,86.38h-5.85l8,37.85h5.84a2.46,2.46,0,0,0,2.46-3.12l-6.72-31.62A4.06,4.06,0,0,0,554.69,86.38Z" transform="translate(-14.47 -29.82)"/><g class="cls-25"><path class="cls-26" d="M554.69,86.38h-5.85l8,37.85h5.84a2.46,2.46,0,0,0,2.46-3.12l-6.72-31.62A4.06,4.06,0,0,0,554.69,86.38Z" transform="translate(-14.47 -29.82)"/></g><path class="cls-3" d="M554.69,86.38h-5.85l8,37.85h5.84a2.46,2.46,0,0,0,2.46-3.12l-6.72-31.62A4.06,4.06,0,0,0,554.69,86.38Z" transform="translate(-14.47 -29.82)"/><path class="cls-12" d="M550.72,91.29h30.7a0,0,0,0,1,0,0v1.94a1.18,1.18,0,0,1-1.18,1.18H551.9a1.18,1.18,0,0,1-1.18-1.18V91.29A0,0,0,0,1,550.72,91.29Z"/><g class="cls-27"><path class="cls-26" d="M550.72,91.29h30.7a0,0,0,0,1,0,0v1.94a1.18,1.18,0,0,1-1.18,1.18H551.9a1.18,1.18,0,0,1-1.18-1.18V91.29A0,0,0,0,1,550.72,91.29Z"/></g><path class="cls-3" d="M550.72,91.29h30.7a0,0,0,0,1,0,0v1.94a1.18,1.18,0,0,1-1.18,1.18H551.9a1.18,1.18,0,0,1-1.18-1.18V91.29A0,0,0,0,1,550.72,91.29Z"/><path class="cls-12" d="M560.47,124.23H513a4.06,4.06,0,0,1-3.78-3.12l-6.72-31.62A2.44,2.44,0,0,1,505,86.38h47.45a4.06,4.06,0,0,1,3.78,3.11l6.72,31.62A2.45,2.45,0,0,1,560.47,124.23Z" transform="translate(-14.47 -29.82)"/><g class="cls-28"><path class="cls-19" d="M560.47,124.23H513a4.06,4.06,0,0,1-3.78-3.12l-6.72-31.62A2.44,2.44,0,0,1,505,86.38h47.45a4.06,4.06,0,0,1,3.78,3.11l6.72,31.62A2.45,2.45,0,0,1,560.47,124.23Z" transform="translate(-14.47 -29.82)"/></g><path class="cls-3" d="M560.47,124.23H513a4.06,4.06,0,0,1-3.78-3.12l-6.72-31.62A2.44,2.44,0,0,1,505,86.38h47.45a4.06,4.06,0,0,1,3.78,3.11l6.72,31.62A2.45,2.45,0,0,1,560.47,124.23Z" transform="translate(-14.47 -29.82)"/><path class="cls-6" d="M470.43,74.06a8.63,8.63,0,1,1,0-17.25h64.45a8.63,8.63,0,1,1,0,17.25Z" transform="translate(-14.47 -29.82)"/><path class="cls-17" d="M470.43,74.06a8.63,8.63,0,1,1,0-17.25h64.45a8.63,8.63,0,1,1,0,17.25Z" transform="translate(-14.47 -29.82)"/><path class="cls-8" d="M509,59.76H470.43a5.68,5.68,0,0,0,0,11.36h35.93Z" transform="translate(-14.47 -29.82)"/><path class="cls-3" d="M507.93,201.28V124.22h10.72v0h93.47a7.36,7.36,0,0,1-7.36,7.33H518.65v81.17" transform="translate(-14.47 -29.82)"/></g><g id="Character_2" data-name="Character 2"><path class="cls-14" d="M530.52,469.2l-47.4,0a4.1,4.1,0,0,1-4.09-4l-3.26-87.43a4.09,4.09,0,0,1,4.38-4.22l55.48,3.9a4.1,4.1,0,0,1,3.8,4.31l-4.82,83.54A4.09,4.09,0,0,1,530.52,469.2Z" transform="translate(-14.47 -29.82)"/><path class="cls-1" d="M496.9,417a20.11,20.11,0,0,0,.7-3.62c-.06-.79-.44-2.54-1.1-3-.87-.56-4.14.26-4.14.26s.82-2.71.26-3.32-2.32-.36-3-.05c-1.13.51-2.48,2.75-3.23,3.73-.92,1.2-2.53,3.74-3.39,5-.42.61-1.7,2.41-1.7,2.41l-10.54,3.77.57,10.69,11.88-7.19s10.67,0,12.92-2.41C497.22,422.15,496.66,418.59,496.9,417Z" transform="translate(-14.47 -29.82)"/><path class="cls-14" d="M479.73,395.39c-.59,8.47-1.86,17.35-4.44,22.45h4.43s-4,7.11-1.45,13.82c0,0-12,8.11-14.74,2.94s.42-26.12,3.18-36.19,3.61-25.54,13.44-24.84" transform="translate(-14.47 -29.82)"/><path class="cls-3" d="M473.52,418.55a10.51,10.51,0,0,0-4.9,3.95" transform="translate(-14.47 -29.82)"/><path class="cls-1" d="M497,391.06l2-.27a2.49,2.49,0,0,1,2.81,2.13l2.23,16.4a2.48,2.48,0,0,1-2.13,2.8l-2,.27Z" transform="translate(-14.47 -29.82)"/><rect class="cls-29" x="489.3" y="391.37" width="12.31" height="21.53" rx="1.95" transform="translate(1026.2 703.88) rotate(172.24)"/><rect class="cls-3" x="489.3" y="391.37" width="12.31" height="21.53" rx="1.95" transform="translate(1026.2 703.88) rotate(172.24)"/><path class="cls-1" d="M489.81,394.61a.9.9,0,1,0,.77-1A.9.9,0,0,0,489.81,394.61Z" transform="translate(-14.47 -29.82)"/><path class="cls-1" d="M491.47,410.75a20.79,20.79,0,0,1-.29-3.67c.15-.78.72-2.48,1.43-2.83.92-.47,4.08.71,4.08.71s-.51-2.78.11-3.33,2.35-.09,3,.29c1.07.63,2.16,3,2.8,4.07.78,1.29,2.09,4,2.81,5.33l1.41,2.58,9.43,4.26-4.35,7.92-7.78-5.17s-10.61-1.2-12.58-3.84C490.58,415.81,491.54,412.33,491.47,410.75Z" transform="translate(-14.47 -29.82)"/><path class="cls-14" d="M534.8,382c.23-1.05.48-2.09.76-3.12a1.48,1.48,0,0,1,2.52-.64l.36.38a16.9,16.9,0,0,1,4,7.26c2.58,9.72,8.13,34.18,4.2,52.12a4.33,4.33,0,0,1-4.5,3.43c-7.22-.45-19.86-2.25-33.68-15.94,0,0,2.94-6.84,6.35-9.19l19.09,7.77a148.57,148.57,0,0,1-1.29-20.64" transform="translate(-14.47 -29.82)"/><path class="cls-3" d="M535.58,425.29a6.76,6.76,0,0,1,3.28,4.08" transform="translate(-14.47 -29.82)"/><path class="cls-2" d="M509.86,362.49l12.41-19.92s6.44-2.67,3-6.11c0,0,5.53-9.57-1.65-9.57,0,0-.92-7.77-7.86-4.63,0,0-6.05-7.18-10.09-1.95,0,0-8.29-4-10.42,1.05,0,0-6.06,0-5.82,4.49,0,0-3.8,5.08,1.21,5.68,0,0-1.33,4,4.61,4s13.27,7.26,13.27,7.26L510,350.3Z" transform="translate(-14.47 -29.82)"/><path class="cls-6" d="M517.94,376.5s-13.49,7.41-23.31-2.09c0,0,2.48-4.66,3.33-16.27l14.32-2.56a42.24,42.24,0,0,0,.44,11.84C513.63,371.84,516.21,375.93,517.94,376.5Z" transform="translate(-14.47 -29.82)"/><g class="cls-30"><path class="cls-2" d="M513.28,355.93l-.42,1.49a7,7,0,0,1-1.19,2.4c-2.19,2.89-8.34,10.16-14.32,9.56-5.58-.56-7.11-9.14-7.53-13.45Z" transform="translate(-14.47 -29.82)"/></g><path class="cls-3" d="M517.94,376.5s-13.49,7.41-23.31-2.09c0,0,2.48-4.66,3.33-16.27l14.32-2.56a42.24,42.24,0,0,0,.44,11.84C513.63,371.84,516.21,375.93,517.94,376.5Z" transform="translate(-14.47 -29.82)"/><path class="cls-1" d="M491.79,333.47l-2.32,7.2a5.26,5.26,0,0,0-.2,2.36l.31,2.13-1.17,4.75a6.18,6.18,0,0,0-.13.75c-.25,2.5-1.22,15.8,5.82,17.52,6.24,1.52,13.81-5.25,16.56-8a7.71,7.71,0,0,0,1.61-2.37l1.58-3.59a4.3,4.3,0,0,0,4.51-2.3c1.46-2.87,3.37-4.56.55-6.58s-4.61,2.07-4.61,2.07.09-5.14-.57-6.68c-.59-1.36-3-3.34-3.6-4.69a18.54,18.54,0,0,1-.58-3.18s-9.63.26-16.47-2.35Z" transform="translate(-14.47 -29.82)"/><path class="cls-1" d="M491.79,333.47l-2.32,7.2a5.26,5.26,0,0,0-.2,2.36l.31,2.13-1.17,4.75a6.18,6.18,0,0,0-.13.75c-.25,2.5-1.22,15.8,5.82,17.52,6.24,1.52,13.81-5.25,16.56-8a7.71,7.71,0,0,0,1.61-2.37l1.58-3.59a4.3,4.3,0,0,0,4.51-2.3c1.46-2.87,3.37-4.56.55-6.58s-4.61,2.07-4.61,2.07.09-5.14-.57-6.68c-.59-1.36-3-3.34-3.6-4.69a18.54,18.54,0,0,1-.58-3.18s-9.63.26-16.47-2.35Z" transform="translate(-14.47 -29.82)"/><path class="cls-3" d="M496.27,347.71l-3.53,5.68a1.37,1.37,0,0,0,.86,2.06l3.12.73" transform="translate(-14.47 -29.82)"/><path class="cls-3" d="M501.42,359.45c-2.18,1.72-4.91,2-6.25.75" transform="translate(-14.47 -29.82)"/><path class="cls-12" d="M501,349.67c-.14.83-.57,1.46-1,1.4s-.62-.8-.48-1.64.58-1.47,1-1.4S501.17,348.83,501,349.67Z" transform="translate(-14.47 -29.82)"/><path class="cls-12" d="M493.16,348.37c-.14.84-.57,1.46-1,1.4s-.62-.8-.48-1.64.58-1.46,1-1.4S493.3,347.53,493.16,348.37Z" transform="translate(-14.47 -29.82)"/><path class="cls-3" d="M489.87,343.28a2.5,2.5,0,0,1,3.6-1.53" transform="translate(-14.47 -29.82)"/><path class="cls-3" d="M499.34,342.38s3.29,0,4.15,2.87" transform="translate(-14.47 -29.82)"/><path class="cls-2" d="M512.49,332.75s-7.88,5.75-8.82,1.6c0,0-6.56,1.57-7-.64,0,0-6.57,2.63-7.28.59s5.24-7.47,5.24-7.47l13.87,1.76Z" transform="translate(-14.47 -29.82)"/><path class="cls-20" d="M496.37,325.67a22.36,22.36,0,0,1-3.29,4.86" transform="translate(-14.47 -29.82)"/><path class="cls-20" d="M500.54,323.8a4.42,4.42,0,0,0-3.28.82" transform="translate(-14.47 -29.82)"/><path class="cls-20" d="M516.6,328.62c-3.83-.37-4.33,3-10.32,2.72-5.6-.23-3-4.56-3.89-6.56" transform="translate(-14.47 -29.82)"/><path class="cls-20" d="M519.36,341.48s6.6-9.58,0-12.14" transform="translate(-14.47 -29.82)"/><path class="cls-1" d="M471.62,643.56c-1.91.83-4.73,2-6.09,5.65a1.51,1.51,0,0,0,1.39,2h21.47a1.72,1.72,0,0,0,1.71-1.46,15.56,15.56,0,0,0-1.05-7.94l1.19-13.21H477.69l-.95,12.65Z" transform="translate(-14.47 -29.82)"/><path class="cls-19" d="M485.29,643.42c2.24,3.14,1.68-1.56,3.76-1.56a15.56,15.56,0,0,1,1.05,7.94,1.72,1.72,0,0,1-1.71,1.46H466.92a1.51,1.51,0,0,1-1.39-2c1.36-3.63,4.18-4.82,6.09-5.65l5.12-2.26S483.05,640.29,485.29,643.42Z" transform="translate(-14.47 -29.82)"/><path class="cls-1" d="M490.15,649.36c0,.15,0,.3,0,.44a1.72,1.72,0,0,1-1.71,1.46H466.92a1.49,1.49,0,0,1-1.43-1.88l2.47,0Z" transform="translate(-14.47 -29.82)"/><path class="cls-2" d="M480.44,467.35,476,636.67h15.47s4.79-42.36,5.35-56.55c.25-6.37,1.55-17.58,2-23.94.78-11.51,2.58-24.34,7-46.68.71-3.61,5-9.83,6-13.4,1.8-7,2.56-28.73,2.56-28.73Z" transform="translate(-14.47 -29.82)"/><path class="cls-20" d="M491.16,567.78s-3.52,4.67-8.43,4" transform="translate(-14.47 -29.82)"/><path class="cls-20" d="M478.6,563.34s5.59,3.32,13.9,0" transform="translate(-14.47 -29.82)"/><path class="cls-1" d="M547,643.56c2,.87,5.07,2.17,6.24,6.1a1.27,1.27,0,0,1-1.24,1.6H530.56a2.08,2.08,0,0,1-2.07-1.83,15.82,15.82,0,0,1,1.1-7.57l-1.18-13.21H541l.95,12.65Z" transform="translate(-14.47 -29.82)"/><path class="cls-19" d="M553.27,649.66a1.27,1.27,0,0,1-1.24,1.6H530.56a2.08,2.08,0,0,1-2.07-1.83,15.82,15.82,0,0,1,1.1-7.57c2-.33.72,4,4,1.34s8.29-1.9,8.29-1.9l5.12,2.26C549,644.43,552.1,645.73,553.27,649.66Z" transform="translate(-14.47 -29.82)"/><path class="cls-1" d="M553.15,649.36a2.68,2.68,0,0,1,.12.3,1.27,1.27,0,0,1-1.24,1.6H530.56a2.08,2.08,0,0,1-2.07-1.83v-.07Z" transform="translate(-14.47 -29.82)"/><path class="cls-2" d="M533.13,467.37s2.19,16.82,2.51,22.47c.18,3.35-.11,10.06,0,13.41.41,12.87,2,38.58,3.28,51.39.67,6.74,3.16,20.08,3.62,26.85.92,13.76,0,55.18,0,55.18H527s-6.31-46.73-7.94-62.36c-.59-5.56-7-60.82-11.42-72.85-.84-2.31-2.74-6.17-3.52-8.49a88.43,88.43,0,0,1-3.42-15c-.23-2.65-.39-10.64-.39-10.64Z" transform="translate(-14.47 -29.82)"/><path class="cls-20" d="M536,561.45s-2.86,5.29-13.11,5.29" transform="translate(-14.47 -29.82)"/><path class="cls-20" d="M507.34,502.57c-.84-2.2-2.74-5.88-3.53-8.1-1.21-3.4-3.12-16.47-3.51-27.11" transform="translate(-14.47 -29.82)"/><path class="cls-20" d="M521.29,578.26a116.55,116.55,0,0,0,17,41.19" transform="translate(-14.47 -29.82)"/><path class="cls-20" d="M477.5,576.17A109.59,109.59,0,0,0,488,615.5" transform="translate(-14.47 -29.82)"/><path class="cls-1" d="M519.34,357.71H559c3.11,0,5.63,3.6,5.63,8.05v13.41c0,4.44-2.52,8-5.63,8H527.35l-12.77,8.5,4.76-8.5h0c-3.11,0-5.63-3.6-5.63-8V365.76C513.71,361.31,516.23,357.71,519.34,357.71Z" transform="translate(-14.47 -29.82)"/><line class="cls-3" x1="541.21" y1="336.12" x2="507.66" y2="336.12"/><line class="cls-3" x1="541.21" y1="342.08" x2="510.24" y2="342.08"/><line class="cls-3" x1="541.21" y1="348.03" x2="507.66" y2="348.03"/></g><g id="Character_1" data-name="Character 1"><path class="cls-16" d="M134.66,412.8,56,422.88a29.63,29.63,0,0,1-33.34-27.64L15,265.13a29.62,29.62,0,0,1,33.71-31.08L140,246.92a29.63,29.63,0,0,1,25.45,30.7l-4.95,107.16A29.63,29.63,0,0,1,134.66,412.8Z" transform="translate(-14.47 -29.82)"/><path class="cls-3" d="M43.57,282.21H80.15a7.07,7.07,0,0,1,6.48,6.37l8.63,77.77a12.26,12.26,0,0,0,12.21,10.93" transform="translate(-14.47 -29.82)"/><path class="cls-3" d="M143,387.06v7.17H56.15a12.28,12.28,0,0,1-12.24-11.3l-7.54-93.32a6.87,6.87,0,0,1,7.2-7.4A7.07,7.07,0,0,1,50,288.58l8.63,77.77a12.28,12.28,0,0,0,12.22,10.93h62.3A9.78,9.78,0,0,1,143,387.06Z" transform="translate(-14.47 -29.82)"/><g class="cls-31"><path class="cls-3" d="M124.08,463.2H101.9V391.75H90.46V463.2H68.28a6.93,6.93,0,0,0-6.93,6.93H131A6.94,6.94,0,0,0,124.08,463.2Z" transform="translate(-14.47 -29.82)"/></g><polyline class="cls-3" points="87.44 387.2 87.44 364.41 76 364.41 76 388.65"/><polygon class="cls-1" points="127.69 413.46 128.81 429.23 140.72 428.87 140.07 411.84 127.69 413.46"/><path class="cls-2" d="M142.39,464.89s19.16.77,25.48,0c2-.24,6.56-.27,7.69-1.9.55-.79-.44-3.82-.44-3.82l-10-3.07-6.91-3.8a2.9,2.9,0,0,0-3.38.4l-.79.71a3,3,0,0,0-1,2.35l0,.34-1.14-.8a3,3,0,0,0-1.68-.52h-8.25s-2,2.77-2,7.89A2.28,2.28,0,0,0,142.39,464.89Z" transform="translate(-14.47 -29.82)"/><polygon class="cls-1" points="89.2 395.27 81.29 408.31 90.89 415.37 99.95 401.63 89.2 395.27"/><path class="cls-14" d="M136.87,367.17s-13.06,6.08-37.06,62.16c0,0,4,7.15,12.2,8.08,0,0,57.37-70.7,50.05-83.17-6.88-11.72-70.73-7.36-70.73-7.36l.84,28S130.52,372.93,136.87,367.17Z" transform="translate(-14.47 -29.82)"/><path class="cls-2" d="M107.62,216.14S96.16,207.51,84.93,215,66.6,240.1,72.6,247.13a18.18,18.18,0,0,0,14.66,6.14s11.37,8.71,16,7.32,12.62-13.63,13-24.53S120.09,217.06,107.62,216.14Z" transform="translate(-14.47 -29.82)"/><path class="cls-6" d="M96.21,254.73s-3.18,4.4-3,8.12l-15-5.16s6.26-9.1,7.75-18S96.21,254.73,96.21,254.73Z" transform="translate(-14.47 -29.82)"/><g class="cls-32"><path class="cls-2" d="M85.63,243.75c.24,4.52,1.45,6.42,5.21,10.26,4.35,4.42,7.2,7.91,13.54,0,4.2-5.25,5.5-8.6,5.91-10.26Z" transform="translate(-14.47 -29.82)"/></g><path class="cls-3" d="M96.21,254.73s-3.18,4.4-3,8.12l-15-5.16s6.26-9.1,7.75-18S96.21,254.73,96.21,254.73Z" transform="translate(-14.47 -29.82)"/><path class="cls-14" d="M63.33,348.65s-11.08,24.2,7.6,28.23,58.21-4.76,58.21-4.76,3.22,31.25,12.32,76.64a42.84,42.84,0,0,0,14.8-1.19s-.57-84.48-8.2-94.83S83.4,343.17,63.33,348.65Z" transform="translate(-14.47 -29.82)"/><path class="cls-2" d="M60.6,348.67s2.74,3.09,21.05-3.1l23.06-.88s8.6-39,5.89-53.51a210.73,210.73,0,0,0-6.18-24.93S86.68,258.8,66.11,261a2.67,2.67,0,0,0-2.4,2.91C64.74,274.78,68.1,310.2,60.6,348.67Z" transform="translate(-14.47 -29.82)"/><path class="cls-2" d="M104.42,266.25s9.57,2.12,9.57,13.53-1.11,30-1.11,30l12.37,16.76s-5.3,2.93-6.11,7.87c0,0-18.5-15.22-19.54-20.49S104.42,266.25,104.42,266.25Z" transform="translate(-14.47 -29.82)"/><path class="cls-1" d="M106.4,306.81l.91,3.41-2.56-2.43-7.63-12.86a1,1,0,0,1,.33-1.31h0a1,1,0,0,1,1.31.33Z" transform="translate(-14.47 -29.82)"/><path class="cls-1" d="M86.45,308.94a28.88,28.88,0,0,0,5.94-5.53c2.43-3.16,3.22-5,5.12-4.37s8.73,2.45,7.74,4.65a3.93,3.93,0,0,1-.87,2.58,7.25,7.25,0,0,1-2,2.53c-1.34,1-1.79.55-1.79.55s-1,.81-1.56.6c0,0-1.45,2.55-6.35,3.52l-13.14,5.61-1.34-8.43Z" transform="translate(-14.47 -29.82)"/><path class="cls-3" d="M95.7,301.88a14.58,14.58,0,0,0,1.86,1.45c.89.56,4,2.19,3.92,3.23s-2.24,3.06-3,2.94-3.13-1.06-3.07-1.61a4.69,4.69,0,0,0-.46,1.37,4.84,4.84,0,0,1-1.42,3.45" transform="translate(-14.47 -29.82)"/><path class="cls-3" d="M104.38,306.27a2.32,2.32,0,0,0-1-1.35A29,29,0,0,1,99,301.87" transform="translate(-14.47 -29.82)"/><path class="cls-3" d="M105.25,303.69a5.21,5.21,0,0,0-1.17-.88c-.64-.35-3.81-2.53-5-2.8" transform="translate(-14.47 -29.82)"/><path class="cls-3" d="M96.18,307.23s1-.37,1.42,0,.36.88.83,1.38" transform="translate(-14.47 -29.82)"/><path class="cls-3" d="M97.6,307.2A6,6,0,0,1,96,305.55" transform="translate(-14.47 -29.82)"/><path class="cls-2" d="M67.29,294.34c-.19,3.65-2.13,18.51-2.13,18.51a104.86,104.86,0,0,1,19.77-4.4s-1,3.92,2,9.5c0,0-27.52,10.8-33.19,9.65S49,314.24,51.16,287.1s15-26.1,15-26.1" transform="translate(-14.47 -29.82)"/><path class="cls-20" d="M85.68,318s-11.26,4.42-20.86,7.3" transform="translate(-14.47 -29.82)"/><path class="cls-20" d="M66.07,294.34c-.19,3.65-2.13,18.51-2.13,18.51a104.86,104.86,0,0,1,19.77-4.4" transform="translate(-14.47 -29.82)"/><path class="cls-2" d="M74.81,260.65s3.18-2,3.29-4.6,14.4,5,17.71,4.54,1.37,2.41,1.1,3.21C96,266.4,93.62,269.75,74.81,260.65Z" transform="translate(-14.47 -29.82)"/><path class="cls-20" d="M96.83,263.8c-.84,2.46-3,5.6-19.24-1.81" transform="translate(-14.47 -29.82)"/><path class="cls-1" d="M112.36,231.64l-1.51,9.07s.24,3.61-6.1,11.52-9.18,4.43-13.53,0S85.93,246,86,239.7c0,0-2.23-.32-3.6-4.4s3.64-5.65,4.9-3.05l7.55-3.67L99.48,223l2.67-3.56,5.47,2,5.8,3.5Z" transform="translate(-14.47 -29.82)"/><path class="cls-3" d="M105.66,241s-2.33,2.4-.38,4.71c2.64,3.14-2.91,2.17-2.92,3.11" transform="translate(-14.47 -29.82)"/><path class="cls-3" d="M99.43,249.84s-1.79.46-4.9-2.65" transform="translate(-14.47 -29.82)"/><path class="cls-12" d="M100.45,240.5c-.33.78-.85,1.3-1.16,1.17s-.28-.87.06-1.65.85-1.31,1.16-1.17S100.79,239.72,100.45,240.5Z" transform="translate(-14.47 -29.82)"/><path class="cls-12" d="M107.3,243.61c-.3.7-.77,1.17-1,1s-.25-.78,0-1.48.76-1.17,1-1.05S107.6,242.91,107.3,243.61Z" transform="translate(-14.47 -29.82)"/><path class="cls-3" d="M104.18,234.69s-2.05-1.77-5.05.07" transform="translate(-14.47 -29.82)"/><path class="cls-3" d="M108.88,237.36a2.25,2.25,0,0,1,1.54,1.64" transform="translate(-14.47 -29.82)"/><path class="cls-2" d="M87.68,228.58s-3.27,8.34,1.26,12c0,0,3.76-10.76,11.56-12s11-3.63,11-3.63-.93,10.61,1.19,13.23S114.77,226,114.77,226l-2.09-5.1-11.23-4.51-9.67,4.54Z" transform="translate(-14.47 -29.82)"/><path class="cls-2" d="M85.68,241.1s-1.53,9.28,2,10.21-5.06,1.11-9.53-.95S84.06,240,84.06,240Z" transform="translate(-14.47 -29.82)"/><path class="cls-1" d="M106,306.3h1.68l-5.58,35.22h-1.68A1.46,1.46,0,0,1,99,339.77l5-31.72A2.12,2.12,0,0,1,106,306.3Z" transform="translate(-14.47 -29.82)"/><path class="cls-1" d="M101.58,341.52H122a2.12,2.12,0,0,0,2-1.75l5-31.72a1.46,1.46,0,0,0-1.47-1.75H107.16a2.12,2.12,0,0,0-2,1.75l-5,31.72A1.46,1.46,0,0,0,101.58,341.52Z" transform="translate(-14.47 -29.82)"/><path class="cls-3" d="M123.05,312.51h1.86a1.35,1.35,0,0,0,1.29-1.12l.3-1.85a.94.94,0,0,0-.94-1.12H123.7a1.35,1.35,0,0,0-1.29,1.12l-.3,1.85A.94.94,0,0,0,123.05,312.51Z" transform="translate(-14.47 -29.82)"/><path class="cls-3" d="M123.57,310.46a.62.62,0,0,0,.62.74.9.9,0,0,0,.85-.74.61.61,0,0,0-.62-.73A.9.9,0,0,0,123.57,310.46Z" transform="translate(-14.47 -29.82)"/><path class="cls-1" d="M125,329.79s1.94-5.66,3.39-4.34c1.13,1-.82,4.34-.82,4.34Z" transform="translate(-14.47 -29.82)"/><path class="cls-1" d="M129.68,332c.33-.65,1.41-2.11,1-2.73-.71-1.13-4-.86-5.33-.49a5.6,5.6,0,0,0-2.29,1.05c-.2.25-.46,1-.24,1.26.37.42,1.66-.19,2.22-.21a21.55,21.55,0,0,1,2.9.46,22.32,22.32,0,0,1-3.32.77c-1.17,0-5.44-.71-4.35,1.77,0,0-1.58.48-.67,1.67s4,1.07,4,1.07a9.23,9.23,0,0,1-2.14.32c-1.23.06-2.18-.93-2.29-.27-.17,1,.74,1.85,2,2.32a5.06,5.06,0,0,0,4,0C127.38,338.19,128.74,333.83,129.68,332Z" transform="translate(-14.47 -29.82)"/><path class="cls-3" d="M121.25,334.25a27.74,27.74,0,0,0,3.43.5,5.72,5.72,0,0,0,2.32-.45" transform="translate(-14.47 -29.82)"/><path class="cls-20" d="M111.32,304.08a56.53,56.53,0,0,0-.33-12.9c-1.61-8.58-3.48-15.74-4.74-20.15" transform="translate(-14.47 -29.82)"/><path class="cls-2" d="M90.33,441.11s13,14.05,18,18c1.56,1.22,4.83,4.43,6.76,4.09.94-.17,2.36-3,2.36-3l-4.89-9.2-2.21-7.53a2.94,2.94,0,0,0-2.67-2.11l-1-.05a2.87,2.87,0,0,0-2.32,1l-.22.25-.25-1.36a3,3,0,0,0-.81-1.55l-5.83-5.82s-3.37.5-6.9,4.15A2.26,2.26,0,0,0,90.33,441.11Z" transform="translate(-14.47 -29.82)"/><path class="cls-3" d="M130.78,368.77s4.12-5.65,6.38-6.78" transform="translate(-14.47 -29.82)"/><path class="cls-14" d="M122.37,193.68a2.82,2.82,0,0,1-2-.82,30.82,30.82,0,0,0-43.55,0,2.8,2.8,0,0,1-4-4,36.44,36.44,0,0,1,51.47,0,2.8,2.8,0,0,1-2,4.78Z" transform="translate(-14.47 -29.82)"/><path class="cls-14" d="M114.92,201.13a2.82,2.82,0,0,1-2-.82,20.26,20.26,0,0,0-28.64,0,2.8,2.8,0,0,1-4-4,25.86,25.86,0,0,1,36.56,0,2.81,2.81,0,0,1,0,4A2.84,2.84,0,0,1,114.92,201.13Z" transform="translate(-14.47 -29.82)"/><path class="cls-14" d="M108.39,207.66a2.76,2.76,0,0,1-2-.82,11,11,0,0,0-15.58,0,2.8,2.8,0,1,1-4-4,16.63,16.63,0,0,1,23.5,0,2.8,2.8,0,0,1-2,4.78Z" transform="translate(-14.47 -29.82)"/></g></svg>