<svg width="22" height="22" viewBox="0 0 22 22" fill="none" xmlns="http://www.w3.org/2000/svg">
<path d="M16.8438 2.32461C19.5508 4.2582 21.3125 7.4207 21.3125 11C21.3125 16.8781 16.5516 21.6434 10.6777 21.6562C4.81251 21.6691 0.00860159 16.8867 7.8425e-06 11.0172C-0.00428903 7.43789 1.75743 4.2668 4.46016 2.32891C4.9629 1.97227 5.66329 2.12266 5.96407 2.65977L6.64298 3.86719C6.89649 4.31836 6.77618 4.88984 6.35938 5.19922C4.57618 6.52266 3.43751 8.61953 3.43751 10.9957C3.43321 14.9617 6.63868 18.2188 10.6563 18.2188C14.5922 18.2188 17.9008 15.0305 17.875 10.9527C17.8621 8.72695 16.8137 6.57852 14.9488 5.19492C14.532 4.88555 14.416 4.31406 14.6695 3.86719L15.3484 2.65977C15.6492 2.12695 16.3453 1.96797 16.8438 2.32461ZM12.375 11.3438V1.03125C12.375 0.459766 11.9152 0 11.3438 0H9.96876C9.39727 0 8.93751 0.459766 8.93751 1.03125V11.3438C8.93751 11.9152 9.39727 12.375 9.96876 12.375H11.3438C11.9152 12.375 12.375 11.9152 12.375 11.3438Z" fill="#EFEFEF"/>
</svg>
