<svg width="20" height="20" viewBox="0 0 20 20" fill="none" xmlns="http://www.w3.org/2000/svg">
<path fill-rule="evenodd" clip-rule="evenodd" d="M10 2C8.60076 1.99974 7.22593 2.36649 6.01272 3.06363C4.79951 3.76077 3.79037 4.76392 3.08602 5.97295C2.38167 7.18198 2.00675 8.55461 1.99868 9.95383C1.9906 11.353 2.34966 12.7299 3.04001 13.947C3.50662 13.3406 4.10644 12.8496 4.79309 12.512C5.47975 12.1744 6.23484 11.9992 7 12H13C13.7652 11.9992 14.5203 12.1744 15.2069 12.512C15.8936 12.8496 16.4934 13.3406 16.96 13.947C17.6503 12.7299 18.0094 11.353 18.0013 9.95383C17.9932 8.55461 17.6183 7.18198 16.914 5.97295C16.2096 4.76392 15.2005 3.76077 13.9873 3.06363C12.7741 2.36649 11.3992 1.99974 10 2ZM17.943 16.076C19.28 14.333 20.0032 12.1968 20 9.99999C20 4.477 15.523 0 10 0C4.47701 0 1.12532e-05 4.477 1.12532e-05 9.99999C-0.00329018 12.1968 0.719916 14.333 2.05701 16.076L2.05201 16.094L2.40701 16.507C3.34489 17.6035 4.50939 18.4836 5.82024 19.0866C7.13108 19.6897 8.5571 20.0013 10 20C12.0273 20.0037 14.0074 19.3879 15.675 18.235C16.3859 17.7438 17.0306 17.163 17.593 16.507L17.948 16.094L17.943 16.076ZM10 4C9.20435 4 8.44129 4.31607 7.87868 4.87868C7.31607 5.44128 7 6.20435 7 6.99999C7 7.79564 7.31607 8.5587 7.87868 9.12131C8.44129 9.68392 9.20435 9.99999 10 9.99999C10.7956 9.99999 11.5587 9.68392 12.1213 9.12131C12.6839 8.5587 13 7.79564 13 6.99999C13 6.20435 12.6839 5.44128 12.1213 4.87868C11.5587 4.31607 10.7956 4 10 4Z" fill="#EFEFEF"/>
</svg>
