<svg width="19" height="20" viewBox="0 0 19 20" fill="none" xmlns="http://www.w3.org/2000/svg">
<path d="M18.7033 0.548057C18.5645 0.409317 18.3886 0.313646 18.1967 0.272561C18.0048 0.231476 17.8052 0.246729 17.6218 0.316483L0.655874 6.73821H0.652481C0.456862 6.81345 0.289238 6.94724 0.172502 7.12131C0.0557659 7.29539 -0.00439032 7.50126 0.000249567 7.7108C0.00488946 7.92034 0.0740992 8.12335 0.198426 8.29208C0.322753 8.46082 0.496135 8.58706 0.694893 8.65357L0.712282 8.65908L6.53539 11.1457C6.64897 11.1802 6.7696 11.1843 6.88525 11.1576C7.0009 11.1309 7.10752 11.0743 7.19447 10.9935L16.5403 2.28486C16.5681 2.25701 16.6012 2.23492 16.6376 2.21985C16.674 2.20478 16.713 2.19702 16.7523 2.19702C16.7917 2.19702 16.8307 2.20478 16.8671 2.21985C16.9035 2.23492 16.9366 2.25701 16.9644 2.28486C16.9922 2.31271 17.0143 2.34577 17.0294 2.38216C17.0445 2.41854 17.0522 2.45754 17.0522 2.49693C17.0522 2.53631 17.0445 2.57531 17.0294 2.61169C17.0143 2.64808 16.9922 2.68114 16.9644 2.70899L8.25561 12.0508C8.1748 12.1378 8.11822 12.2444 8.0915 12.3601C8.06478 12.4757 8.06887 12.5963 8.10335 12.7099L10.5908 18.5366C10.5933 18.5451 10.5959 18.5527 10.5988 18.5608C10.7346 18.9539 11.0781 19.2313 11.4933 19.25H11.5357C11.7453 19.2512 11.9505 19.1893 12.1244 19.0723C12.2984 18.9554 12.4331 18.7888 12.5112 18.5943L18.9319 1.63255C19.0026 1.44902 19.0187 1.24893 18.9781 1.05646C18.9375 0.864 18.8421 0.687412 18.7033 0.548057Z" fill="#EFEFEF"/>
</svg>
