<svg width="25" height="25" viewBox="0 0 25 25" fill="none" xmlns="http://www.w3.org/2000/svg">
<path d="M9.97812 6.57156e-07C8.41642 0.000835201 6.87669 0.367956 5.48269 1.07186C4.0887 1.77576 2.87931 2.7968 1.95174 4.05293C1.02417 5.30905 0.404282 6.76523 0.141906 8.3044C-0.120469 9.84358 -0.0180176 11.4228 0.441028 12.9152C0.900073 14.4076 1.70291 15.7715 2.785 16.8973C3.8671 18.0231 5.19828 18.8794 6.67154 19.3974C8.14481 19.9154 9.71907 20.0806 11.2678 19.8797C12.8165 19.6788 14.2965 19.1175 15.5888 18.2409L21.7586 24.4043C21.93 24.5882 22.1366 24.7357 22.3662 24.838C22.5959 24.9403 22.8437 24.9953 23.0951 24.9997C23.3464 25.0041 23.5961 24.9579 23.8292 24.8638C24.0622 24.7697 24.274 24.6296 24.4517 24.4518C24.6295 24.2741 24.7696 24.0624 24.8638 23.8294C24.9579 23.5964 25.0041 23.3468 24.9997 23.0955C24.9953 22.8442 24.9403 22.5964 24.8379 22.3668C24.7356 22.1372 24.5881 21.9306 24.4042 21.7593L18.2394 15.5908C19.2593 14.0901 19.8508 12.3398 19.9502 10.5281C20.0496 8.71649 19.6532 6.91201 18.8037 5.30872C17.9541 3.70543 16.6835 2.36399 15.1285 1.42862C13.5735 0.493251 11.7929 -0.000657623 9.97812 6.57156e-07ZM3.73846 9.98133C3.73846 8.32682 4.39585 6.74008 5.56602 5.57016C6.73618 4.40025 8.32326 3.743 9.97812 3.743C11.633 3.743 13.2201 4.40025 14.3902 5.57016C15.5604 6.74008 16.2178 8.32682 16.2178 9.98133C16.2178 11.6358 15.5604 13.2226 14.3902 14.3925C13.2201 15.5624 11.633 16.2197 9.97812 16.2197C8.32326 16.2197 6.73618 15.5624 5.56602 14.3925C4.39585 13.2226 3.73846 11.6358 3.73846 9.98133Z" fill="#EFEFEF"/>
</svg>
