<svg width="21" height="22" viewBox="0 0 21 22" fill="none" xmlns="http://www.w3.org/2000/svg">
<path d="M18.5991 11C18.5991 10.747 18.5883 10.505 18.5667 10.252L20.5753 8.701C21.0072 8.371 21.126 7.755 20.8561 7.271L18.8367 3.718C18.7072 3.485 18.4978 3.30896 18.2486 3.22368C17.9995 3.13841 17.7282 3.14992 17.4868 3.256L15.1651 4.257C14.7655 3.971 14.3444 3.718 13.9016 3.509L13.5885 0.968C13.5237 0.418 13.0593 0 12.5194 0H8.49142C7.94068 0 7.47633 0.418 7.41154 0.968L7.09838 3.509C6.65563 3.718 6.23447 3.971 5.83492 4.257L3.51317 3.256C3.01643 3.036 2.43329 3.234 2.16332 3.718L0.143946 7.282C-0.126024 7.766 -0.00723743 8.371 0.424715 8.712L2.43329 10.263C2.38853 10.757 2.38853 11.2541 2.43329 11.748L0.424715 13.299C-0.00723743 13.629 -0.126024 14.245 0.143946 14.729L2.16332 18.282C2.43329 18.766 3.01643 18.964 3.51317 18.744L5.83492 17.743C6.23447 18.029 6.65563 18.282 7.09838 18.491L7.41154 21.032C7.47633 21.582 7.94068 22 8.48062 22H12.5086C13.0485 22 13.5129 21.582 13.5777 21.032L13.8908 18.491C14.3336 18.282 14.7547 18.029 15.1543 17.743L17.476 18.744C17.9728 18.964 18.5559 18.766 18.8259 18.282L20.8453 14.729C21.1152 14.245 20.9964 13.64 20.5645 13.299L18.5559 11.748C18.5883 11.495 18.5991 11.253 18.5991 11ZM10.5432 14.85C8.45903 14.85 6.76361 13.123 6.76361 11C6.76361 8.877 8.45903 7.15 10.5432 7.15C12.6274 7.15 14.3228 8.877 14.3228 11C14.3228 13.123 12.6274 14.85 10.5432 14.85Z" fill="#EFEFEF"/>
</svg>
