<svg width="21" height="21" viewBox="0 0 21 21" fill="none" xmlns="http://www.w3.org/2000/svg">
<path d="M10.5 0C4.70127 0 0 4.70127 0 10.5C0 16.2987 4.70127 21 10.5 21C16.2987 21 21 16.2987 21 10.5C21 4.70127 16.2987 0 10.5 0ZM15.1119 10.7347C15.0372 10.8101 14.9484 10.8699 14.8506 10.9109C14.7527 10.9519 14.6478 10.9732 14.5417 10.9736C14.4356 10.9741 14.3305 10.9536 14.2323 10.9134C14.1341 10.8732 14.0448 10.814 13.9695 10.7393L11.3077 8.09812V14.8413C11.3077 15.0556 11.2226 15.261 11.0711 15.4125C10.9197 15.5639 10.7142 15.649 10.5 15.649C10.2858 15.649 10.0803 15.5639 9.92887 15.4125C9.7774 15.261 9.69231 15.0556 9.69231 14.8413V8.09812L7.03046 10.7393C6.95508 10.814 6.86573 10.8731 6.7675 10.9133C6.66927 10.9535 6.5641 10.9739 6.45797 10.9735C6.35184 10.973 6.24685 10.9516 6.14898 10.9106C6.05111 10.8695 5.96228 10.8096 5.88757 10.7342C5.81286 10.6589 5.75373 10.5695 5.71355 10.4713C5.67337 10.373 5.65293 10.2679 5.6534 10.1617C5.65387 10.0556 5.67523 9.95062 5.71628 9.85275C5.75733 9.75488 5.81725 9.66606 5.89262 9.59135L9.93108 5.58368C10.0824 5.43355 10.2869 5.34931 10.5 5.34931C10.7131 5.34931 10.9176 5.43355 11.0689 5.58368L15.1074 9.59135C15.1828 9.66607 15.2428 9.75494 15.2839 9.85288C15.325 9.95082 15.3464 10.0559 15.3468 10.1621C15.3472 10.2683 15.3267 10.3735 15.2864 10.4718C15.2461 10.5701 15.1868 10.6594 15.1119 10.7347Z" fill="#EFEFEF"/>
</svg>
